<svg version="1.1" id="Layer_1" xmlns="http://www.w3.org/2000/svg" xmlns:xlink="http://www.w3.org/1999/xlink" x="0px" y="0px"
	 width="100%" viewBox="0 0 192 192" enable-background="new 0 0 192 192" xml:space="preserve">
<path fill="#000000" opacity="1.000000" stroke="none" 
	d="
M1.000000,77.000000 
	C1.000000,51.333340 1.000000,26.166679 1.000000,1.000014 
	C64.999977,1.000009 128.999954,1.000009 192.999954,1.000005 
	C192.999969,64.999962 192.999969,128.999924 192.999985,192.999908 
	C129.000046,192.999939 65.000107,192.999939 1.000078,192.999969 
	C1.000000,154.500000 1.000000,116.000000 1.000000,77.000000 
M166.966522,79.000977 
	C166.966522,79.000977 166.903976,79.060150 166.735641,79.612038 
	C167.115433,79.429085 167.495224,79.246124 168.224747,78.473579 
	C168.743744,77.290558 169.262741,76.107529 170.196045,74.272987 
	C171.112473,70.977798 172.618408,67.716881 172.812408,64.379692 
	C173.133820,58.850880 172.926682,53.236355 172.289017,47.733631 
	C172.031143,45.508377 170.387482,42.825348 166.210892,45.238590 
	C166.751434,48.851025 167.291977,52.463459 167.839172,56.124073 
	C167.839172,56.124073 167.885910,56.137566 167.960205,56.928955 
	C168.104462,59.019936 168.213303,61.114166 168.404633,63.200829 
	C168.546921,64.752602 168.796112,66.294571 168.958206,68.594093 
	C168.378311,70.704575 167.798416,72.815056 167.079559,75.661209 
	C167.049194,76.408386 167.018845,77.155571 166.463608,78.105301 
	C166.620728,78.430550 166.777847,78.755806 166.966522,79.000977 
M165.811035,94.846947 
	C165.738541,95.199959 165.666061,95.552979 165.593582,95.905991 
	C166.091721,95.630402 166.589859,95.354805 167.587280,94.913223 
	C167.755127,94.616852 167.922974,94.320480 168.690582,93.821014 
	C169.805695,92.577911 170.920822,91.334801 172.596512,89.921967 
	C173.100861,89.338829 173.605209,88.755699 174.651596,88.007393 
	C174.642990,87.524101 174.634384,87.040802 173.768677,86.277206 
	C173.182663,87.197014 172.596634,88.116814 171.295547,89.077782 
	C169.832169,90.710815 168.368774,92.343842 166.624329,94.027588 
	C166.624329,94.027588 166.453735,94.256660 165.811035,94.846947 
M69.013466,176.018463 
	C69.013466,176.018463 69.013275,176.086502 69.678490,176.070312 
	C70.192558,175.740967 70.706619,175.411606 71.955795,175.105637 
	C72.588310,174.996246 73.359337,175.083038 73.832977,174.748627 
	C84.104050,167.496979 94.820137,160.748230 102.777084,149.809982 
	C105.160332,147.242737 107.543571,144.675476 109.911819,142.769547 
	C106.525749,152.639725 107.766930,162.881699 107.580879,173.057755 
	C113.057663,176.215439 115.153908,175.758347 115.840515,171.124481 
	C116.604271,165.969971 117.154068,160.779831 118.053978,155.650284 
	C119.500114,147.407150 122.751259,139.941086 130.835876,136.424774 
	C136.357849,134.023056 140.296326,130.273666 142.788757,125.296898 
	C145.076538,120.728790 146.837326,116.984985 152.941727,116.439262 
	C156.414139,116.128838 158.975067,112.663994 158.934128,108.435287 
	C158.913254,106.277786 158.926987,104.119942 159.255188,101.236855 
	C161.327698,99.834808 163.400192,98.432762 165.976685,96.689766 
	C163.834595,96.153198 162.590378,95.841537 162.164795,95.734940 
	C162.656387,92.495064 163.070816,89.763771 164.204941,87.092896 
	C164.195465,86.387924 164.185974,85.682945 164.319839,84.313919 
	C164.789444,83.369835 165.259048,82.425743 166.119492,81.770409 
	C165.998032,81.715004 165.876572,81.659607 165.036835,81.254311 
	C161.348480,81.875900 161.768814,84.413025 162.270844,87.785103 
	C159.806351,91.497643 157.341858,95.210175 154.093903,98.861694 
	C150.026566,96.877136 146.242920,97.966568 143.107742,100.605003 
	C135.591171,106.930588 128.310822,113.536880 120.307503,119.693596 
	C120.880707,117.906395 121.651459,116.156250 121.994736,114.325928 
	C124.069954,103.261200 126.292442,92.213852 127.915375,81.080482 
	C128.434326,77.520447 127.278557,73.716286 126.976112,69.155190 
	C126.651978,67.064285 126.172226,64.984062 126.027855,62.880817 
	C124.639893,42.660393 116.231842,25.244549 104.603897,9.119989 
	C103.022446,6.926984 101.102608,5.988718 98.924492,8.566542 
	C95.546303,12.564660 91.847717,16.331701 88.823883,20.580273 
	C84.306839,26.926868 80.258141,33.606789 75.384842,39.864281 
	C64.215286,29.926071 52.470749,20.942635 36.997993,16.168377 
	C35.164669,22.918213 33.530014,28.936607 31.261023,35.377514 
	C30.898554,37.585651 30.536083,39.793789 29.992699,42.818893 
	C29.333042,51.267025 28.168356,59.719112 28.234545,68.161552 
	C28.265924,72.164268 30.648514,76.148552 32.048363,80.576996 
	C32.048363,80.576996 32.185780,80.998703 32.316387,81.703957 
	C38.358185,99.428978 49.982788,112.608887 66.546196,121.674034 
	C59.563580,123.202133 53.701046,124.485107 47.109093,125.927292 
	C44.688496,126.932266 42.267899,127.937241 39.130836,129.005127 
	C35.392040,130.988281 31.653244,132.971451 27.195766,134.967392 
	C24.449615,136.616013 21.703465,138.264648 18.191561,140.008408 
	C13.499591,142.370346 8.807621,144.732285 3.769918,147.634689 
	C4.322376,148.762482 4.579658,150.295563 5.477336,150.949387 
	C9.850784,154.134750 14.395430,157.085068 18.678461,160.761765 
	C18.118155,162.173355 17.557848,163.584961 16.338614,165.236023 
	C13.782760,168.085541 11.101740,170.833878 8.698654,173.806870 
	C4.474321,179.033081 5.120123,180.368073 11.692125,182.067566 
	C21.589914,184.627106 31.684006,185.474884 41.651882,183.806168 
	C49.953804,182.416351 57.992252,179.452713 66.779350,177.105438 
	C67.198433,177.047043 67.617516,176.988647 68.563271,176.904938 
	C68.735741,176.612991 68.908211,176.321045 69.013466,176.018463 
M178.142105,85.133949 
	C178.142105,85.133949 178.146896,85.075409 178.766357,84.807838 
	C178.779999,83.928268 178.793640,83.048691 178.921051,81.552620 
	C178.892822,81.345566 178.864594,81.138504 179.470047,80.650856 
	C181.610016,77.434494 183.750000,74.218124 185.912811,70.181450 
	C186.218933,68.935913 186.567734,67.699059 186.823151,66.443222 
	C187.594208,62.652111 188.626953,58.874992 188.901642,55.045368 
	C188.987274,53.851437 186.985275,52.507759 185.938950,51.232620 
	C184.912338,52.160805 183.058960,53.041103 183.001953,54.025448 
	C182.751938,58.341858 183.021835,62.688385 182.844391,67.536064 
	C182.604553,68.021835 182.364716,68.507607 182.074387,69.508247 
	C182.089172,69.680046 182.103973,69.851852 181.759415,70.637558 
	C180.218933,73.768410 178.678467,76.899261 177.003738,80.757278 
	C176.717590,82.440796 176.431427,84.124313 176.733307,85.959091 
	C177.183441,85.686127 177.633560,85.413162 178.142105,85.133949 
z"/>
<path fill="#714E5D" opacity="1.000000" stroke="none" 
	d="
M158.925064,101.962257 
	C158.926987,104.119942 158.913254,106.277786 158.934128,108.435287 
	C158.975067,112.663994 156.414139,116.128838 152.941727,116.439262 
	C146.837326,116.984985 145.076538,120.728790 142.788757,125.296898 
	C140.296326,130.273666 136.357849,134.023056 130.835876,136.424774 
	C122.751259,139.941086 119.500114,147.407150 118.053978,155.650284 
	C117.154068,160.779831 116.604271,165.969971 115.840515,171.124481 
	C115.153908,175.758347 113.057663,176.215439 107.580879,173.057755 
	C107.766930,162.881699 106.525749,152.639725 109.944199,142.196991 
	C109.976578,141.624451 109.959366,141.138062 110.272766,140.967072 
	C113.175262,136.937485 115.764359,133.078903 118.456253,129.639191 
	C118.123772,131.887314 117.953468,133.835236 117.198273,135.521179 
	C115.609711,139.067612 113.714256,142.476562 111.731583,146.259827 
	C110.855476,153.434570 110.146729,160.287735 109.594261,167.153488 
	C109.533058,167.914139 110.363884,168.746597 110.781013,169.545746 
	C111.548790,168.893738 112.866119,168.336838 112.998024,167.574768 
	C114.123482,161.072205 115.033798,154.532410 116.015961,147.680420 
	C116.026520,146.925919 116.029648,146.494751 116.356483,145.986435 
	C118.118996,144.600372 119.557808,143.291458 121.166473,141.679825 
	C123.179993,138.432266 125.023666,135.487427 126.845825,132.576935 
	C132.057449,133.022888 135.366364,130.337906 137.467407,126.129974 
	C140.584808,119.886589 144.083313,114.419479 151.589310,112.504288 
	C153.357681,112.053078 155.581314,108.752129 155.463776,106.897240 
	C155.354630,105.175034 152.642944,103.167580 150.640701,102.119507 
	C147.525757,100.489006 144.920715,101.800865 143.147720,104.839012 
	C142.430374,106.068245 141.635300,107.347626 140.582718,108.269905 
	C134.645447,113.472092 128.635269,118.591782 122.602112,123.682892 
	C121.873146,124.298019 120.855896,124.571518 120.022110,124.600143 
	C120.225471,123.127762 120.378998,122.058578 120.701263,120.890030 
	C121.008125,120.547035 121.029839,120.293442 120.935150,120.029892 
	C128.310822,113.536880 135.591171,106.930588 143.107742,100.605003 
	C146.242920,97.966568 150.026566,96.877136 154.552704,99.264343 
	C156.316040,100.432083 157.620544,101.197166 158.925064,101.962257 
z"/>
<path fill="#B46A72" opacity="1.000000" stroke="none" 
	d="
M76.010201,40.144909 
	C80.258141,33.606789 84.306839,26.926868 88.823883,20.580273 
	C91.847717,16.331701 95.546303,12.564660 98.924492,8.566542 
	C101.102608,5.988718 103.022446,6.926984 104.603897,9.119989 
	C116.231842,25.244549 124.639893,42.660393 126.027855,62.880817 
	C126.172226,64.984062 126.651978,67.064285 126.701485,69.893265 
	C125.968063,73.103409 125.509277,75.575470 125.027786,77.595459 
	C123.992325,70.095970 122.979568,63.048557 121.922195,55.667770 
	C119.921204,48.889553 117.964836,42.444706 115.945068,35.644234 
	C113.249046,29.990286 110.868584,24.544432 107.887863,19.449764 
	C106.139259,16.461008 103.435028,14.031355 101.160652,11.350208 
	C98.760330,14.523597 96.360008,17.696987 93.621727,20.955235 
	C90.541718,24.843506 87.740204,28.605818 85.074814,32.462212 
	C82.545113,36.122276 81.199028,40.855865 76.046638,41.736923 
	C76.023872,40.994164 76.017036,40.569534 76.010201,40.144909 
z"/>
<path fill="#BC7379" opacity="1.000000" stroke="none" 
	d="
M66.147400,177.186157 
	C57.992252,179.452713 49.953804,182.416351 41.651882,183.806168 
	C31.684006,185.474884 21.589914,184.627106 11.692125,182.067566 
	C5.120123,180.368073 4.474321,179.033081 8.698654,173.806870 
	C11.101740,170.833878 13.782760,168.085541 16.679325,165.126831 
	C17.020037,165.017639 17.042858,165.038345 16.963755,165.372375 
	C15.913249,168.139908 14.941846,170.573395 13.791205,173.300568 
	C11.695572,177.595337 12.506508,179.231918 16.891174,179.898727 
	C28.502542,181.664566 40.112339,181.568207 51.540714,178.842880 
	C53.647072,178.340607 55.258640,175.763474 57.491127,174.136536 
	C60.242325,174.432755 62.600975,174.736435 65.135010,175.294464 
	C65.589394,176.094589 65.868401,176.640381 66.147400,177.186157 
z"/>
<path fill="#8D505E" opacity="1.000000" stroke="none" 
	d="
M47.838512,125.768082 
	C53.701046,124.485107 59.563580,123.202133 66.546196,121.674034 
	C49.982788,112.608887 38.358185,99.428978 32.551559,81.352531 
	C33.188019,81.005043 33.589310,81.008972 34.141567,81.319839 
	C35.853916,84.085487 37.415291,86.544205 39.118855,89.295662 
	C40.174950,91.056046 41.088856,92.523697 42.071697,94.329987 
	C44.751244,97.772499 47.361858,100.876366 50.055229,104.279099 
	C50.755756,105.056404 51.373524,105.534836 51.995796,106.006683 
	C52.000305,106.000084 51.989296,106.009987 52.155609,106.299927 
	C56.513702,110.083824 60.705486,113.577782 65.015503,117.388306 
	C66.429733,119.809807 67.725731,121.914734 68.974487,124.391449 
	C67.534996,125.408234 66.181343,126.460388 64.740883,126.596954 
	C62.867813,126.774551 60.925762,126.224648 58.639534,125.986115 
	C57.519634,125.998756 56.773598,126.013145 56.017265,126.007835 
	C56.006966,125.988136 55.979652,125.953056 55.733517,125.757988 
	C54.341705,125.702835 53.196030,125.842758 51.778404,126.019066 
	C51.325760,126.083832 51.145058,126.112198 50.686836,126.147354 
	C49.552383,126.025452 48.695446,125.896767 47.838512,125.768082 
z"/>
<path fill="#A96069" opacity="1.000000" stroke="none" 
	d="
M75.697525,40.004593 
	C76.017036,40.569534 76.023872,40.994164 76.036377,41.960602 
	C76.042061,42.502415 76.020538,42.950916 75.667114,42.919319 
	C71.804596,40.047558 68.493103,36.907192 64.740440,34.437054 
	C59.005562,30.662138 53.107273,27.078428 47.018753,23.912848 
	C40.056171,20.292816 37.474365,22.011225 36.652225,30.043449 
	C34.856941,31.763365 33.376148,33.359184 31.895355,34.955002 
	C33.530014,28.936607 35.164669,22.918213 36.997993,16.168377 
	C52.470749,20.942635 64.215286,29.926071 75.697525,40.004593 
z"/>
<path fill="#C57F80" opacity="1.000000" stroke="none" 
	d="
M125.050491,78.047531 
	C125.509277,75.575470 125.968063,73.103409 126.657951,70.327583 
	C127.278557,73.716286 128.434326,77.520447 127.915375,81.080482 
	C126.292442,92.213852 124.069954,103.261200 121.994736,114.325928 
	C121.651459,116.156250 120.880707,117.906395 120.621330,119.861740 
	C121.029839,120.293442 121.008125,120.547035 120.288094,120.914398 
	C119.157867,121.066849 118.609566,121.095566 118.042458,120.732376 
	C118.013954,119.555840 118.004242,118.771210 117.998749,117.575958 
	C118.694969,114.142700 119.553154,111.146950 120.047386,108.092308 
	C121.451530,99.413918 122.707100,90.711487 124.037979,81.663605 
	C124.386703,80.221634 124.718597,79.134583 125.050491,78.047531 
z"/>
<path fill="#874C61" opacity="1.000000" stroke="none" 
	d="
M66.463379,177.145798 
	C65.868401,176.640381 65.589394,176.094589 65.157433,175.038025 
	C65.015541,174.356094 65.026619,174.184952 65.249298,173.736298 
	C66.470642,172.949631 67.527153,172.515411 68.482353,171.918915 
	C73.706619,168.656616 78.906013,165.354477 84.441238,161.913315 
	C85.953331,161.248199 87.380646,160.997925 88.274559,160.171021 
	C90.409264,158.196350 92.368935,156.013397 94.230934,153.774536 
	C94.794556,153.096848 94.806572,151.960388 95.299530,151.034897 
	C95.527809,151.035721 95.984352,151.029633 96.316681,151.028915 
	C97.091492,151.008682 97.533974,150.989166 98.011505,151.039398 
	C98.046570,151.109131 98.212646,151.131348 98.212646,151.131348 
	C98.212646,151.131348 97.970398,150.976257 98.113342,150.715637 
	C99.053993,149.921326 99.851707,149.387634 100.854401,149.125336 
	C101.433311,149.645508 101.807243,149.894318 102.181175,150.143112 
	C94.820137,160.748230 84.104050,167.496979 73.832977,174.748627 
	C73.359337,175.083038 72.588310,174.996246 71.255272,175.058594 
	C70.040924,175.369888 69.527100,175.728195 69.013275,176.086502 
	C69.013275,176.086502 69.013466,176.018463 68.813751,176.096756 
	C68.302162,176.335480 68.109680,176.587219 68.036598,176.930252 
	C67.617516,176.988647 67.198433,177.047043 66.463379,177.145798 
z"/>
<path fill="#8D4C5D" opacity="1.000000" stroke="none" 
	d="
M18.879494,160.118561 
	C14.395430,157.085068 9.850784,154.134750 5.477336,150.949387 
	C4.579658,150.295563 4.322376,148.762482 4.323406,147.405945 
	C9.570367,144.755905 14.263841,142.334579 18.957314,139.913269 
	C21.703465,138.264648 24.449615,136.616013 27.764164,135.168732 
	C28.551235,135.909821 28.769909,136.449585 28.993961,136.993668 
	C28.999340,136.997986 28.989897,136.989899 28.696903,137.072998 
	C27.917543,137.757858 27.431181,138.359619 26.707153,138.966400 
	C26.469488,138.971420 25.994753,138.997253 25.645496,139.058350 
	C21.998447,141.014145 18.609774,142.771210 15.441931,144.862747 
	C13.902797,145.878967 12.776811,147.520905 11.463789,148.879578 
	C12.957004,150.256653 14.450216,151.633713 16.013102,153.264160 
	C16.734797,153.692017 17.386822,153.866501 18.304810,154.092285 
	C19.027567,154.411606 19.484358,154.679596 20.009977,155.318848 
	C20.397823,157.163544 20.716843,158.636963 20.801167,160.110947 
	C20.566471,160.111496 20.097145,160.119461 19.966667,159.987061 
	C19.517292,159.942612 19.198391,160.030579 18.879494,160.118561 
z"/>
<path fill="#6C5B63" opacity="1.000000" stroke="none" 
	d="
M167.035202,44.987259 
	C170.387482,42.825348 172.031143,45.508377 172.289017,47.733631 
	C172.926682,53.236355 173.133820,58.850880 172.812408,64.379692 
	C172.618408,67.716881 171.112473,70.977798 169.668533,74.599258 
	C168.500183,74.925537 167.859344,74.925537 167.218506,74.925537 
	C167.798416,72.815056 168.378311,70.704575 169.080048,67.824585 
	C169.438385,63.835884 169.749146,60.618282 169.817932,57.395515 
	C169.826584,56.990128 168.561066,56.557549 167.885910,56.137566 
	C167.885910,56.137566 167.839172,56.124073 168.247299,55.864182 
	C168.115341,52.065281 167.575272,48.526272 167.035202,44.987259 
z"/>
<path fill="#C17179" opacity="1.000000" stroke="none" 
	d="
M102.479126,149.976547 
	C101.807243,149.894318 101.433311,149.645508 100.923607,148.698364 
	C100.822098,145.669464 100.856361,143.338882 101.275177,141.003448 
	C103.111168,140.011002 104.562614,139.023422 106.008423,138.024063 
	C106.002785,138.012283 106.025772,138.020477 106.349281,137.918427 
	C109.115074,133.544571 111.557350,129.272736 114.070206,124.653015 
	C115.067978,122.205132 115.995186,120.105156 117.190430,118.000671 
	C117.637169,117.992958 117.815857,117.989761 117.994537,117.986572 
	C118.004242,118.771210 118.013954,119.555840 117.977493,121.087341 
	C116.636795,124.835411 115.303375,127.820564 114.058052,130.842041 
	C112.650536,134.257034 111.322166,137.704636 109.959366,141.138062 
	C109.959366,141.138062 109.976578,141.624451 109.951698,141.866333 
	C107.543571,144.675476 105.160332,147.242737 102.479126,149.976547 
z"/>
<path fill="#74606A" opacity="1.000000" stroke="none" 
	d="
M183.103165,67.023987 
	C183.021835,62.688385 182.751938,58.341858 183.001953,54.025448 
	C183.058960,53.041103 184.912338,52.160805 185.938950,51.232628 
	C186.985275,52.507759 188.987274,53.851437 188.901642,55.045368 
	C188.626953,58.874992 187.594208,62.652111 186.823151,66.443222 
	C186.567734,67.699059 186.218933,68.935913 185.634628,70.622681 
	C184.277222,70.717163 183.197998,70.370415 182.118774,70.023666 
	C182.103973,69.851852 182.089172,69.680046 182.340363,69.192322 
	C182.771957,68.258926 182.937561,67.641457 183.103165,67.023987 
z"/>
<path fill="#A3636C" opacity="1.000000" stroke="none" 
	d="
M31.965906,80.141182 
	C30.648514,76.148552 28.265924,72.164268 28.234545,68.161552 
	C28.168356,59.719112 29.333042,51.267025 30.398827,42.557487 
	C31.196198,43.857899 31.587440,45.419720 31.897697,47.390320 
	C31.550200,52.191292 31.283689,56.583473 31.008133,61.425583 
	C31.003523,64.563484 31.007959,67.251457 31.018978,70.278435 
	C31.351358,71.432083 31.677155,72.246727 32.006962,73.374847 
	C32.027561,74.104759 32.044151,74.521194 32.042442,75.369164 
	C32.004730,77.247520 31.985317,78.694351 31.965906,80.141182 
z"/>
<path fill="#BE5860" opacity="1.000000" stroke="none" 
	d="
M31.978685,46.981537 
	C31.587440,45.419720 31.196198,43.857899 30.489285,42.149002 
	C30.536083,39.793789 30.898554,37.585651 31.578190,35.166260 
	C33.376148,33.359184 34.856941,31.763365 36.817547,30.432228 
	C37.874268,35.470566 38.451183,40.244225 39.019188,45.260761 
	C39.010277,45.503639 38.994995,45.989872 38.603012,46.016247 
	C36.133583,46.355595 34.056133,46.668564 31.978685,46.981537 
z"/>
<path fill="#F4F0F2" opacity="1.000000" stroke="none" 
	d="
M159.090118,101.599556 
	C157.620544,101.197166 156.316040,100.432083 154.944443,99.294853 
	C157.341858,95.210175 159.806351,91.497643 162.335480,87.433121 
	C162.400101,87.081131 162.460220,87.031189 162.716278,87.190437 
	C163.143311,87.243942 163.314270,87.138206 163.485245,87.032478 
	C163.070816,89.763771 162.656387,92.495064 162.164795,95.734940 
	C162.590378,95.841537 163.834595,96.153198 165.976685,96.689766 
	C163.400192,98.432762 161.327698,99.834808 159.090118,101.599556 
z"/>
<path fill="#AA3D56" opacity="1.000000" stroke="none" 
	d="
M28.988583,136.989349 
	C28.769909,136.449585 28.551235,135.909821 28.123505,135.162338 
	C31.653244,132.971451 35.392040,130.988281 39.764565,129.103729 
	C40.937187,129.485413 41.476086,129.768478 41.900917,130.359772 
	C39.849285,132.108383 37.911716,133.548813 35.618843,135.058441 
	C33.171886,135.748230 31.080236,136.368790 28.988583,136.989349 
z"/>
<path fill="#736B6F" opacity="1.000000" stroke="none" 
	d="
M181.939087,70.330612 
	C183.197998,70.370415 184.277222,70.717163 185.623215,71.032837 
	C183.750000,74.218124 181.610016,77.434494 178.933609,80.693176 
	C177.977448,80.500374 177.557709,80.265244 177.137985,80.030113 
	C178.678467,76.899261 180.218933,73.768410 181.939087,70.330612 
z"/>
<path fill="#EDC9D1" opacity="1.000000" stroke="none" 
	d="
M18.574436,139.960846 
	C14.263841,142.334579 9.570367,144.755905 4.496273,147.135727 
	C8.807621,144.732285 13.499591,142.370346 18.574436,139.960846 
z"/>
<path fill="#9D465A" opacity="1.000000" stroke="none" 
	d="
M42.014984,130.051559 
	C41.476086,129.768478 40.937187,129.485413 40.122795,129.072281 
	C42.267899,127.937241 44.688496,126.932266 47.473801,125.847687 
	C48.695446,125.896767 49.552383,126.025452 50.574177,126.462463 
	C47.831020,127.864372 44.923000,128.957962 42.014984,130.051559 
z"/>
<path fill="#EADFE4" opacity="1.000000" stroke="none" 
	d="
M167.923065,56.533260 
	C168.561066,56.557549 169.826584,56.990128 169.817932,57.395515 
	C169.749146,60.618282 169.438385,63.835884 169.099792,67.447983 
	C168.796112,66.294571 168.546921,64.752602 168.404633,63.200829 
	C168.213303,61.114166 168.104462,59.019936 167.923065,56.533260 
z"/>
<path fill="#EAE9E9" opacity="1.000000" stroke="none" 
	d="
M162.460220,87.031189 
	C162.460220,87.031189 162.400101,87.081131 162.373566,87.052444 
	C161.768814,84.413025 161.348480,81.875900 165.420227,81.391953 
	C165.803635,81.529587 165.728638,81.481651 165.728638,81.481651 
	C165.259048,82.425743 164.789444,83.369835 163.901840,84.735512 
	C163.142639,85.781799 162.801437,86.406494 162.460220,87.031189 
z"/>
<path fill="#EADFE4" opacity="1.000000" stroke="none" 
	d="
M166.623047,45.112923 
	C167.575272,48.526272 168.115341,52.065281 168.243958,55.840092 
	C167.291977,52.463459 166.751434,48.851025 166.623047,45.112923 
z"/>
<path fill="#9E9C9D" opacity="1.000000" stroke="none" 
	d="
M172.035934,90.091698 
	C170.920822,91.334801 169.805695,92.577911 168.094086,93.917267 
	C167.300186,94.001312 167.102798,93.989098 166.905396,93.976875 
	C168.368774,92.343842 169.832169,90.710815 171.654724,89.321083 
	C172.021271,89.740158 172.028610,89.915924 172.035934,90.091698 
z"/>
<path fill="#9B4757" opacity="1.000000" stroke="none" 
	d="
M32.007133,80.359085 
	C31.985317,78.694351 32.004730,77.247520 32.363243,75.386932 
	C33.132801,74.984352 33.563255,74.995529 33.994156,75.433167 
	C34.006607,77.563812 34.018608,79.267998 34.020412,80.981888 
	C34.010216,80.991592 33.990597,81.012909 33.990597,81.012909 
	C33.589310,81.008972 33.188019,81.005043 32.486256,80.999908 
	C32.185780,80.998703 32.048363,80.576996 32.007133,80.359085 
z"/>
<path fill="#797576" opacity="1.000000" stroke="none" 
	d="
M177.070862,80.393692 
	C177.557709,80.265244 177.977448,80.500374 178.616760,80.833473 
	C178.864594,81.138504 178.892822,81.345566 178.612534,82.108994 
	C178.251648,83.468712 178.199280,84.272064 178.146896,85.075409 
	C178.146896,85.075409 178.142105,85.133949 177.894684,84.889923 
	C177.146591,85.033203 176.645935,85.420517 176.145264,85.807831 
	C176.431427,84.124313 176.717590,82.440796 177.070862,80.393692 
z"/>
<path fill="#BC7379" opacity="1.000000" stroke="none" 
	d="
M18.778976,160.440155 
	C19.198391,160.030579 19.517292,159.942612 19.933578,160.331802 
	C19.034929,162.218750 18.038895,163.628555 17.042858,165.038345 
	C17.042858,165.038345 17.020037,165.017639 17.008789,165.007095 
	C17.557848,163.584961 18.118155,162.173355 18.778976,160.440155 
z"/>
<path fill="#4B494E" opacity="1.000000" stroke="none" 
	d="
M167.149033,75.293373 
	C167.859344,74.925537 168.500183,74.925537 169.461365,74.925018 
	C169.262741,76.107529 168.743744,77.290558 167.807159,78.757141 
	C167.389557,79.040703 166.903976,79.060150 166.903976,79.060150 
	C166.903976,79.060150 166.966522,79.000977 166.972137,78.746750 
	C166.981323,78.295937 166.984894,78.099342 166.988480,77.902748 
	C167.018845,77.155571 167.049194,76.408386 167.149033,75.293373 
z"/>
<path fill="#999799" opacity="1.000000" stroke="none" 
	d="
M172.316223,90.006836 
	C172.028610,89.915924 172.021271,89.740158 172.012268,89.300499 
	C172.596634,88.116814 173.182663,87.197014 174.078033,86.824432 
	C174.294785,87.638626 174.202164,87.905594 174.109558,88.172562 
	C173.605209,88.755699 173.100861,89.338829 172.316223,90.006836 
z"/>
<path fill="#9A9899" opacity="1.000000" stroke="none" 
	d="
M162.716278,87.190437 
	C162.801437,86.406494 163.142639,85.781799 163.830170,85.067535 
	C164.185974,85.682945 164.195465,86.387924 163.845093,87.062683 
	C163.314270,87.138206 163.143311,87.243942 162.716278,87.190437 
z"/>
<path fill="#DAD8D9" opacity="1.000000" stroke="none" 
	d="
M178.456635,84.941620 
	C178.199280,84.272064 178.251648,83.468712 178.555634,82.417244 
	C178.793640,83.048691 178.779999,83.928268 178.456635,84.941620 
z"/>
<path fill="#736B6F" opacity="1.000000" stroke="none" 
	d="
M182.973770,67.280029 
	C182.937561,67.641457 182.771957,68.258926 182.365631,68.934891 
	C182.364716,68.507607 182.604553,68.021835 182.973770,67.280029 
z"/>
<path fill="#DAD8D9" opacity="1.000000" stroke="none" 
	d="
M176.439301,85.883461 
	C176.645935,85.420517 177.146591,85.033203 177.865479,84.893051 
	C177.633560,85.413162 177.183441,85.686127 176.439301,85.883461 
z"/>
<path fill="#BC7379" opacity="1.000000" stroke="none" 
	d="
M69.345886,176.078400 
	C69.527100,175.728195 70.040924,175.369888 70.887711,175.046906 
	C70.706619,175.411606 70.192558,175.740967 69.345886,176.078400 
z"/>
<path fill="#B6B4B5" opacity="1.000000" stroke="none" 
	d="
M167.087997,95.079216 
	C166.589859,95.354805 166.091721,95.630402 165.593582,95.905991 
	C165.666061,95.552979 165.738541,95.199959 166.279297,94.766525 
	C166.861023,94.817139 166.974518,94.948181 167.087997,95.079216 
z"/>
<path fill="#B6B4B5" opacity="1.000000" stroke="none" 
	d="
M166.764862,94.002228 
	C167.102798,93.989098 167.300186,94.001312 167.794220,94.018814 
	C167.922974,94.320480 167.755127,94.616852 167.337646,94.996216 
	C166.974518,94.948181 166.861023,94.817139 166.600647,94.471382 
	C166.453735,94.256660 166.624329,94.027588 166.764862,94.002228 
z"/>
<path fill="#797576" opacity="1.000000" stroke="none" 
	d="
M174.380585,88.089981 
	C174.202164,87.905594 174.294785,87.638626 174.506592,86.964584 
	C174.634384,87.040802 174.642990,87.524101 174.380585,88.089981 
z"/>
<path fill="#737173" opacity="1.000000" stroke="none" 
	d="
M165.924072,81.626030 
	C165.728638,81.481651 165.803635,81.529587 165.779373,81.566895 
	C165.876572,81.659607 165.998032,81.715004 165.924072,81.626030 
z"/>
<path fill="#737173" opacity="1.000000" stroke="none" 
	d="
M166.819809,79.336090 
	C166.903976,79.060150 167.389557,79.040703 167.632294,79.051941 
	C167.495224,79.246124 167.115433,79.429085 166.819809,79.336090 
z"/>
<path fill="#737173" opacity="1.000000" stroke="none" 
	d="
M166.726044,78.004028 
	C166.984894,78.099342 166.981323,78.295937 166.956360,78.786789 
	C166.777847,78.755806 166.620728,78.430550 166.726044,78.004028 
z"/>
<path fill="#BC7379" opacity="1.000000" stroke="none" 
	d="
M68.299934,176.917603 
	C68.109680,176.587219 68.302162,176.335480 68.847359,176.102066 
	C68.908211,176.321045 68.735741,176.612991 68.299934,176.917603 
z"/>
<path fill="#71364F" opacity="1.000000" stroke="none" 
	d="
M116.032784,146.063568 
	C116.029648,146.494751 116.026520,146.925919 115.670334,147.662628 
	C114.193115,147.292740 113.068939,146.617340 111.944763,145.941940 
	C113.714256,142.476562 115.609711,139.067612 117.198273,135.521179 
	C117.953468,133.835236 118.123772,131.887314 118.624008,129.356232 
	C119.116737,127.437386 119.544502,126.220367 119.972260,125.003349 
	C120.855896,124.571518 121.873146,124.298019 122.602112,123.682892 
	C128.635269,118.591782 134.645447,113.472092 140.582718,108.269905 
	C141.635300,107.347626 142.430374,106.068245 143.147720,104.839012 
	C144.920715,101.800865 147.525757,100.489006 150.640701,102.119507 
	C152.642944,103.167580 155.354630,105.175034 155.463776,106.897240 
	C155.581314,108.752129 153.357681,112.053078 151.589310,112.504288 
	C144.083313,114.419479 140.584808,119.886589 137.467407,126.129974 
	C135.366364,130.337906 132.057449,133.022888 126.845825,132.576935 
	C125.023666,135.487427 123.179993,138.432266 120.795471,141.691635 
	C118.847328,143.358627 117.440056,144.711105 116.032784,146.063568 
z"/>
<path fill="#6D3A4E" opacity="1.000000" stroke="none" 
	d="
M111.731583,146.259827 
	C113.068939,146.617340 114.193115,147.292740 115.662903,147.985947 
	C115.033798,154.532410 114.123482,161.072205 112.998024,167.574768 
	C112.866119,168.336838 111.548790,168.893738 110.781013,169.545746 
	C110.363884,168.746597 109.533058,167.914139 109.594261,167.153488 
	C110.146729,160.287735 110.855476,153.434570 111.731583,146.259827 
z"/>
<path fill="#E8BEC8" opacity="1.000000" stroke="none" 
	d="
M120.022110,124.600143 
	C119.544502,126.220367 119.116737,127.437386 118.521225,128.937347 
	C115.764359,133.078903 113.175262,136.937485 110.272766,140.967072 
	C111.322166,137.704636 112.650536,134.257034 114.058052,130.842041 
	C115.303375,127.820564 116.636795,124.835411 117.996292,121.479248 
	C118.609566,121.095566 119.157867,121.066849 120.119354,121.013763 
	C120.378998,122.058578 120.225471,123.127762 120.022110,124.600143 
z"/>
<path fill="#6D3A4E" opacity="1.000000" stroke="none" 
	d="
M116.356483,145.986435 
	C117.440056,144.711105 118.847328,143.358627 120.625610,141.994354 
	C119.557808,143.291458 118.118996,144.600372 116.356483,145.986435 
z"/>
<path fill="#D75D63" opacity="1.000000" stroke="none" 
	d="
M125.027786,77.595459 
	C124.718597,79.134583 124.386703,80.221634 123.567268,81.657837 
	C116.457748,81.778587 109.828453,81.670486 103.217033,81.268402 
	C100.149849,81.081863 100.040497,82.877808 99.667252,84.896400 
	C96.226822,77.193054 93.115318,69.596954 90.221405,61.741997 
	C92.608986,59.838085 94.670006,56.972416 96.968521,56.767231 
	C105.258026,56.027256 113.627533,56.183426 121.966820,56.001141 
	C122.979568,63.048557 123.992325,70.095970 125.027786,77.595459 
z"/>
<path fill="#D45761" opacity="1.000000" stroke="none" 
	d="
M121.922195,55.667770 
	C113.627533,56.183426 105.258026,56.027256 96.968521,56.767231 
	C94.670006,56.972416 92.608986,59.838085 90.029099,61.598480 
	C89.375885,61.502583 89.165520,61.262474 88.906876,60.584404 
	C89.218719,51.117764 89.611786,42.060215 90.380722,32.929008 
	C92.599472,32.643196 94.442345,32.431053 96.590874,32.183723 
	C96.590874,34.368492 96.590874,35.795410 96.590874,37.750980 
	C102.680748,37.750980 108.552475,37.796696 114.420700,37.674763 
	C114.961327,37.663532 115.479744,36.583561 116.008469,35.999855 
	C117.964836,42.444706 119.921204,48.889553 121.922195,55.667770 
z"/>
<path fill="#CA4C5A" opacity="1.000000" stroke="none" 
	d="
M90.004852,33.002670 
	C89.611786,42.060215 89.218719,51.117764 88.538391,60.657372 
	C82.537064,62.763618 76.822998,64.387802 71.078674,65.596329 
	C71.319687,62.469070 71.590950,59.757473 71.895477,56.635628 
	C72.621048,53.150227 73.313354,50.075073 74.218269,46.759121 
	C74.960762,45.329185 75.490646,44.140049 76.020538,42.950916 
	C76.020538,42.950916 76.042061,42.502415 76.052322,42.278732 
	C81.199028,40.855865 82.545113,36.122276 85.074814,32.462212 
	C87.740204,28.605818 90.541718,24.843506 93.571526,21.325121 
	C92.915161,23.509424 91.771011,25.339800 91.086082,27.328348 
	C90.465469,29.130167 90.345535,31.104437 90.004852,33.002670 
z"/>
<path fill="#D0525E" opacity="1.000000" stroke="none" 
	d="
M90.380722,32.929008 
	C90.345535,31.104437 90.465469,29.130167 91.086082,27.328348 
	C91.771011,25.339800 92.915161,23.509424 93.909492,21.240265 
	C96.360008,17.696987 98.760330,14.523597 101.160652,11.350208 
	C103.435028,14.031355 106.139259,16.461008 107.887863,19.449764 
	C110.868584,24.544432 113.249046,29.990286 115.945068,35.644234 
	C115.479744,36.583561 114.961327,37.663532 114.420700,37.674763 
	C108.552475,37.796696 102.680748,37.750980 96.590874,37.750980 
	C96.590874,35.795410 96.590874,34.368492 96.590874,32.183723 
	C94.442345,32.431053 92.599472,32.643196 90.380722,32.929008 
z"/>
<path fill="#CF5B61" opacity="1.000000" stroke="none" 
	d="
M57.098579,174.144012 
	C55.258640,175.763474 53.647072,178.340607 51.540714,178.842880 
	C40.112339,181.568207 28.502542,181.664566 16.891174,179.898727 
	C12.506508,179.231918 11.695572,177.595337 14.076145,173.114502 
	C17.094448,170.479767 19.461325,166.890686 22.249290,166.526672 
	C25.873436,166.053482 29.828125,168.159943 33.648205,169.125839 
	C37.456055,170.088638 41.273369,171.013992 45.401093,172.071808 
	C49.509960,172.839920 53.304268,173.491974 57.098579,174.144012 
z"/>
<path fill="#93304C" opacity="1.000000" stroke="none" 
	d="
M57.491127,174.136536 
	C53.304268,173.491974 49.509960,172.839920 45.247276,171.756866 
	C43.950306,170.835297 43.157135,170.268066 42.287540,169.866241 
	C35.211727,166.596817 28.121620,163.358307 21.035864,160.110382 
	C20.716843,158.636963 20.397823,157.163544 20.392117,155.333038 
	C21.465767,154.992767 22.226105,155.009552 23.140255,155.365234 
	C26.534431,156.464417 29.774797,157.224701 33.388138,157.984482 
	C34.507057,157.986801 35.253002,157.989639 36.207951,158.190216 
	C36.950905,158.581009 37.484856,158.774048 38.017887,158.974899 
	C38.016964,158.982712 38.006493,158.987640 37.925911,159.284332 
	C38.061993,161.047653 37.790310,163.397797 38.577221,163.832748 
	C42.661133,166.090088 46.929401,168.086060 51.298897,169.734543 
	C55.778973,171.424744 60.450150,172.608444 65.037689,174.013809 
	C65.026619,174.184952 65.015541,174.356094 64.982048,174.783676 
	C62.600975,174.736435 60.242325,174.432755 57.491127,174.136536 
z"/>
<path fill="#BF5665" opacity="1.000000" stroke="none" 
	d="
M20.801168,160.110931 
	C28.121620,163.358307 35.211727,166.596817 42.287540,169.866241 
	C43.157135,170.268066 43.950306,170.835297 44.932716,171.640808 
	C41.273369,171.013992 37.456055,170.088638 33.648205,169.125839 
	C29.828125,168.159943 25.873436,166.053482 22.249290,166.526672 
	C19.461325,166.890686 17.094448,170.479767 14.255383,172.820801 
	C14.941846,170.573395 15.913249,168.139908 16.963755,165.372375 
	C18.038895,163.628555 19.034929,162.218750 20.064054,160.464203 
	C20.097145,160.119461 20.566471,160.111496 20.801168,160.110931 
z"/>
<path fill="#9D384D" opacity="1.000000" stroke="none" 
	d="
M49.972473,103.980232 
	C47.361858,100.876366 44.751244,97.772499 42.535149,94.332512 
	C50.736240,94.267174 58.548332,94.436256 66.346611,94.859802 
	C69.382141,95.024673 70.084923,93.547852 70.302643,91.177170 
	C72.775620,92.235222 74.934967,93.143456 77.287079,94.309189 
	C78.692741,96.381149 79.905624,98.195610 81.126099,100.325119 
	C81.142174,101.060242 81.150658,101.480301 80.864212,102.006607 
	C80.045197,103.743835 79.521111,105.374840 78.559845,107.004715 
	C69.411545,106.672386 60.700420,106.341187 51.989296,106.009987 
	C51.989296,106.009987 52.000305,106.000084 51.912720,105.709869 
	C51.207584,104.939842 50.590027,104.460037 49.972473,103.980232 
z"/>
<path fill="#92354D" opacity="1.000000" stroke="none" 
	d="
M52.155609,106.299927 
	C60.700420,106.341187 69.411545,106.672386 78.663132,107.328857 
	C81.799934,111.433968 84.396294,115.213806 86.572525,119.003113 
	C79.704926,120.099106 73.279976,121.205574 67.527588,116.584244 
	C67.074074,116.219902 65.793480,116.885040 64.897270,117.071739 
	C60.705486,113.577782 56.513702,110.083824 52.155609,106.299927 
z"/>
<path fill="#A33D50" opacity="1.000000" stroke="none" 
	d="
M69.989021,91.027351 
	C70.084923,93.547852 69.382141,95.024673 66.346611,94.859802 
	C58.548332,94.436256 50.736240,94.267174 42.466217,93.993866 
	C41.088856,92.523697 40.174950,91.056046 39.125820,88.921402 
	C38.990070,87.505730 38.989536,86.757050 39.334396,85.933289 
	C42.452259,85.185760 45.363022,84.842155 47.959148,83.750366 
	C50.673080,82.609039 55.116894,84.978577 56.268127,80.142731 
	C57.357929,80.854172 58.187366,81.415100 59.207207,82.255249 
	C62.928082,85.365425 66.458549,88.196388 69.989021,91.027351 
z"/>
<path fill="#BC3E55" opacity="1.000000" stroke="none" 
	d="
M41.900917,130.359772 
	C44.923000,128.957962 47.831020,127.864372 50.851700,126.455673 
	C51.145058,126.112198 51.325760,126.083832 52.170151,126.034103 
	C53.882446,125.992859 54.931049,125.972954 55.979652,125.953056 
	C55.979652,125.953056 56.006966,125.988136 56.118019,126.317123 
	C57.156834,127.086815 58.084599,127.527512 59.218567,128.166290 
	C59.948597,128.577057 60.472427,128.789749 60.997505,129.386566 
	C61.666882,131.513855 62.335007,133.257004 63.005447,135.333710 
	C63.004459,136.111984 63.001156,136.556717 62.672256,137.102325 
	C58.278736,142.929504 51.959167,139.009628 46.937687,140.716949 
	C46.541893,140.851501 45.795216,139.705673 45.119022,139.315277 
	C43.685143,138.487442 42.212723,137.717392 40.713947,137.013397 
	C39.159958,136.283447 37.556168,135.659515 35.974152,134.989227 
	C37.911716,133.548813 39.849285,132.108383 41.900917,130.359772 
z"/>
<path fill="#9D465A" opacity="1.000000" stroke="none" 
	d="
M60.996258,129.002441 
	C60.472427,128.789749 59.948597,128.577057 59.216957,127.836739 
	C59.010567,126.868683 59.011986,126.428268 59.013401,125.987854 
	C60.925762,126.224648 62.867813,126.774551 64.740883,126.596954 
	C66.181343,126.460388 67.534996,125.408234 69.277077,124.347473 
	C71.409927,124.301361 73.192947,124.671005 75.265594,125.220932 
	C79.028275,128.597397 82.501320,131.793579 85.618721,135.021515 
	C83.737213,135.554657 81.506821,136.963074 80.798012,136.412521 
	C75.570000,132.351807 69.463516,135.551651 64.008423,133.610168 
	C62.998470,131.826126 61.997364,130.414291 60.996258,129.002441 
z"/>
<path fill="#893049" opacity="1.000000" stroke="none" 
	d="
M74.975967,125.040649 
	C73.192947,124.671005 71.409927,124.301361 69.324310,123.975685 
	C67.725731,121.914734 66.429733,119.809807 65.015503,117.388306 
	C65.793480,116.885040 67.074074,116.219902 67.527588,116.584244 
	C73.279976,121.205574 79.704926,120.099106 86.781204,119.227036 
	C88.268005,120.295418 89.126022,121.149353 89.604141,122.164780 
	C86.502083,122.551239 83.745674,122.584610 81.068726,123.062767 
	C78.986473,123.434692 77.003220,124.360832 74.975967,125.040649 
z"/>
<path fill="#9B4757" opacity="1.000000" stroke="none" 
	d="
M38.989002,86.008369 
	C38.989536,86.757050 38.990070,87.505730 38.983635,88.628670 
	C37.415291,86.544205 35.853916,84.085487 34.141567,81.319839 
	C33.990597,81.012909 34.010216,80.991592 34.350571,81.060463 
	C36.123615,82.755676 37.556309,84.382027 38.989002,86.008369 
z"/>
<path fill="#AA3D56" opacity="1.000000" stroke="none" 
	d="
M58.639534,125.986115 
	C59.011986,126.428268 59.010567,126.868683 59.010757,127.638649 
	C58.084599,127.527512 57.156834,127.086815 56.128319,126.336823 
	C56.773598,126.013145 57.519634,125.998756 58.639534,125.986115 
z"/>
<path fill="#92354D" opacity="1.000000" stroke="none" 
	d="
M50.055229,104.279099 
	C50.590027,104.460037 51.207584,104.939842 51.908215,105.716461 
	C51.373524,105.534836 50.755756,105.056404 50.055229,104.279099 
z"/>
<path fill="#9D465A" opacity="1.000000" stroke="none" 
	d="
M55.733517,125.757988 
	C54.931049,125.972954 53.882446,125.992859 52.442097,125.997711 
	C53.196030,125.842758 54.341705,125.702835 55.733517,125.757988 
z"/>
<path fill="#AE4654" opacity="1.000000" stroke="none" 
	d="
M75.667114,42.919319 
	C75.490646,44.140049 74.960762,45.329185 73.934601,46.589512 
	C71.134743,44.571831 68.975471,41.821293 65.642128,45.300617 
	C65.324188,45.632481 64.387680,45.392704 63.738842,45.383396 
	C55.501873,45.265282 47.264996,45.140770 39.028095,45.017883 
	C38.451183,40.244225 37.874268,35.470566 37.132034,30.308132 
	C37.474365,22.011225 40.056171,20.292816 47.018753,23.912848 
	C53.107273,27.078428 59.005562,30.662138 64.740440,34.437054 
	C68.493103,36.907192 71.804596,40.047558 75.667114,42.919319 
z"/>
<path fill="#DA6467" opacity="1.000000" stroke="none" 
	d="
M99.996162,85.003654 
	C100.040497,82.877808 100.149849,81.081863 103.217033,81.268402 
	C109.828453,81.670486 116.457748,81.778587 123.550446,82.012756 
	C122.707100,90.711487 121.451530,99.413918 120.047386,108.092308 
	C119.553154,111.146950 118.694969,114.142700 117.998749,117.575958 
	C117.815857,117.989761 117.637169,117.992958 116.869537,117.861755 
	C113.854156,112.484688 111.427711,107.242043 108.925888,101.652359 
	C106.561272,97.203568 104.272034,93.101814 101.982071,88.669891 
	C101.982330,87.899498 101.983299,87.459267 101.903976,86.723793 
	C101.214554,85.953468 100.605438,85.478386 99.998108,85.001656 
	C99.999886,85.000000 99.996162,85.003654 99.996162,85.003654 
z"/>
<path fill="#923452" opacity="1.000000" stroke="none" 
	d="
M95.071243,151.034073 
	C94.806572,151.960388 94.794556,153.096848 94.230934,153.774536 
	C92.368935,156.013397 90.409264,158.196350 88.274559,160.171021 
	C87.380646,160.997925 85.953331,161.248199 84.050468,161.741547 
	C81.383789,161.481537 79.439491,161.195526 77.485756,161.007690 
	C70.326080,160.319305 63.163258,159.663574 56.133072,158.705597 
	C56.504925,157.606155 56.745331,156.796646 56.992638,155.993576 
	C56.999542,156.000000 56.989166,155.986572 57.283379,155.905121 
	C58.051353,155.214706 58.525120,154.605774 59.193176,153.787704 
	C59.590588,153.051636 59.793705,152.524689 60.323441,151.931808 
	C62.100651,150.576462 63.551243,149.287048 65.415466,147.969238 
	C70.087364,147.312332 74.332893,146.288696 78.606964,146.151031 
	C84.528084,145.960266 91.214859,143.974121 95.071243,151.034073 
z"/>
<path fill="#8D2E51" opacity="1.000000" stroke="none" 
	d="
M56.001621,158.995544 
	C63.163258,159.663574 70.326080,160.319305 77.485756,161.007690 
	C79.439491,161.195526 81.383789,161.481537 83.723175,161.894257 
	C78.906013,165.354477 73.706619,168.656616 68.482353,171.918915 
	C67.527153,172.515411 66.470642,172.949631 65.249298,173.736298 
	C60.450150,172.608444 55.778973,171.424744 51.298897,169.734543 
	C46.929401,168.086060 42.661133,166.090088 38.577221,163.832748 
	C37.790310,163.397797 38.061993,161.047653 38.362839,159.283325 
	C40.921257,158.985016 42.962170,158.984406 45.117783,159.290543 
	C48.822189,159.396713 52.411907,159.196136 56.001621,158.995544 
z"/>
<path fill="#983953" opacity="1.000000" stroke="none" 
	d="
M95.299522,151.034897 
	C91.214859,143.974121 84.528084,145.960266 78.606964,146.151031 
	C74.332893,146.288696 70.087364,147.312332 65.414963,147.551392 
	C64.995766,145.766937 64.990715,144.371902 64.984360,142.595657 
	C64.330086,140.799820 63.677128,139.385208 63.018898,137.728271 
	C63.013622,137.485947 62.997849,137.001434 62.997849,137.001434 
	C63.001156,136.556717 63.004459,136.111984 63.198204,135.189209 
	C63.631577,134.497025 63.841122,134.254105 64.017273,133.982361 
	C69.463516,135.551651 75.570000,132.351807 80.798012,136.412521 
	C81.506821,136.963074 83.737213,135.554657 85.879715,135.240784 
	C93.113411,138.527939 93.672050,145.312027 95.984352,151.029633 
	C95.984352,151.029633 95.527809,151.035721 95.299522,151.034897 
z"/>
<path fill="#882C45" opacity="1.000000" stroke="none" 
	d="
M96.316681,151.028915 
	C93.672050,145.312027 93.113411,138.527939 86.235367,135.209015 
	C82.501320,131.793579 79.028275,128.597397 75.265594,125.220940 
	C77.003220,124.360832 78.986473,123.434692 81.068726,123.062767 
	C83.745674,122.584610 86.502083,122.551239 89.848747,122.402489 
	C92.058037,123.623131 93.642830,124.767548 95.467255,126.170044 
	C97.434799,131.288193 99.162712,136.148254 100.890625,141.008316 
	C100.856361,143.338882 100.822098,145.669464 100.718628,148.427002 
	C99.851707,149.387634 99.053993,149.921326 98.128380,150.727539 
	C98.000481,151.000061 97.976448,150.969666 97.976448,150.969666 
	C97.533974,150.989166 97.091492,151.008682 96.316681,151.028915 
z"/>
<path fill="#983953" opacity="1.000000" stroke="none" 
	d="
M97.985443,150.988159 
	C97.970398,150.976257 98.212646,151.131348 98.212646,151.131348 
	C98.212646,151.131348 98.046570,151.109131 98.011505,151.039398 
	C97.976448,150.969666 98.000481,151.000061 97.985443,150.988159 
z"/>
<path fill="#AA3D56" opacity="1.000000" stroke="none" 
	d="
M63.024170,137.970596 
	C63.677128,139.385208 64.330086,140.799820 64.662766,142.717682 
	C62.893929,146.146530 61.445377,149.072144 59.996826,151.997742 
	C59.793705,152.524689 59.590588,153.051636 58.900932,153.872711 
	C57.939320,154.773438 57.464245,155.380005 56.989166,155.986572 
	C56.989166,155.986572 56.999542,156.000000 56.584190,155.996246 
	C52.446918,156.989594 48.725002,157.986694 45.003090,158.983795 
	C42.962170,158.984406 40.921257,158.985016 38.443417,158.986633 
	C38.006493,158.987640 38.016964,158.982712 37.953716,158.728867 
	C37.259964,158.314163 36.629456,158.153320 35.998951,157.992462 
	C35.253002,157.989639 34.507057,157.986801 33.262093,157.638702 
	C29.504202,156.537735 26.245321,155.782043 22.986443,155.026337 
	C22.226105,155.009552 21.465767,154.992767 20.323290,154.961792 
	C19.484358,154.679596 19.027567,154.411606 18.087059,153.886414 
	C17.050039,153.423080 16.496733,153.216934 15.943428,153.010788 
	C14.450216,151.633713 12.957004,150.256653 11.463789,148.879578 
	C12.776811,147.520905 13.902797,145.878967 15.441931,144.862747 
	C18.609774,142.771210 21.998447,141.014145 25.549250,139.378754 
	C24.784615,141.736984 22.448854,145.163956 22.985641,145.696716 
	C24.938591,147.635056 27.757160,148.871323 30.442486,149.833008 
	C31.876812,150.346664 33.708683,149.786072 35.357208,149.659286 
	C41.030441,149.222885 46.587017,147.381882 52.443600,149.593018 
	C54.110016,150.222168 57.590851,148.844696 58.792610,147.277695 
	C60.813095,144.643112 61.674915,141.119949 63.024170,137.970596 
z"/>
<path fill="#B53C54" opacity="1.000000" stroke="none" 
	d="
M63.018898,137.728271 
	C61.674915,141.119949 60.813095,144.643112 58.792610,147.277695 
	C57.590851,148.844696 54.110016,150.222168 52.443600,149.593018 
	C46.587017,147.381882 41.030441,149.222885 35.357208,149.659286 
	C33.708683,149.786072 31.876812,150.346664 30.442486,149.833008 
	C27.757160,148.871323 24.938591,147.635056 22.985641,145.696716 
	C22.448854,145.163956 24.784615,141.736984 25.898506,139.317657 
	C25.994753,138.997253 26.469488,138.971420 27.007996,138.894440 
	C28.027632,138.208267 28.508764,137.599075 28.989897,136.989899 
	C28.989897,136.989899 28.999340,136.997986 28.993961,136.993668 
	C31.080236,136.368790 33.171886,135.748230 35.618843,135.058441 
	C37.556168,135.659515 39.159958,136.283447 40.713947,137.013397 
	C42.212723,137.717392 43.685143,138.487442 45.119022,139.315277 
	C45.795216,139.705673 46.541893,140.851501 46.937687,140.716949 
	C51.959167,139.009628 58.278736,142.929504 62.672253,137.102325 
	C62.997849,137.001434 63.013622,137.485947 63.018898,137.728271 
M38.112751,140.376053 
	C38.132305,140.148361 38.151859,139.920670 38.171410,139.692978 
	C38.042465,139.689102 37.913517,139.685226 37.784573,139.681351 
	C37.792591,139.910034 37.800613,140.138733 38.112751,140.376053 
z"/>
<path fill="#93304C" opacity="1.000000" stroke="none" 
	d="
M16.013100,153.264160 
	C16.496733,153.216934 17.050039,153.423080 17.821095,153.835098 
	C17.386822,153.866501 16.734797,153.692017 16.013100,153.264160 
z"/>
<path fill="#AA3D56" opacity="1.000000" stroke="none" 
	d="
M28.696903,137.072998 
	C28.508764,137.599075 28.027632,138.208267 27.245659,138.889420 
	C27.431181,138.359619 27.917543,137.757858 28.696903,137.072998 
z"/>
<path fill="#D45A61" opacity="1.000000" stroke="none" 
	d="
M109.001274,101.999390 
	C111.427711,107.242043 113.854156,112.484688 116.601494,117.866257 
	C115.995186,120.105156 115.067978,122.205132 113.726517,124.726700 
	C108.113525,127.871071 107.519463,133.200394 106.025772,138.020477 
	C106.025772,138.020477 106.002785,138.012283 105.658005,137.930176 
	C104.257950,136.084045 103.056992,134.389465 102.176155,132.542252 
	C99.998970,127.976456 98.710526,122.764374 95.692215,118.878174 
	C91.869865,113.956772 88.606140,109.008492 87.459091,103.000420 
	C94.946289,102.666618 101.973778,102.333008 109.001274,101.999390 
z"/>
<path fill="#CC5B67" opacity="1.000000" stroke="none" 
	d="
M86.999390,103.000610 
	C88.606140,109.008492 91.869865,113.956772 95.692215,118.878174 
	C98.710526,122.764374 99.998970,127.976456 102.176155,132.542252 
	C103.056992,134.389465 104.257950,136.084045 105.663643,137.941956 
	C104.562614,139.023422 103.111168,140.011002 101.275177,141.003448 
	C99.162712,136.148254 97.434799,131.288193 95.425758,125.802185 
	C90.482803,117.417618 85.820976,109.658989 81.159142,101.900368 
	C81.150658,101.480301 81.142174,101.060242 81.463699,100.342957 
	C83.528931,101.030693 85.264160,102.015648 86.999390,103.000610 
z"/>
<path fill="#CF6066" opacity="1.000000" stroke="none" 
	d="
M106.349281,137.918427 
	C107.519463,133.200394 108.113525,127.871071 113.655945,125.074600 
	C111.557350,129.272736 109.115074,133.544571 106.349281,137.918427 
z"/>
<path fill="#B24756" opacity="1.000000" stroke="none" 
	d="
M33.993710,75.006714 
	C33.563255,74.995529 33.132801,74.984352 32.381546,74.955406 
	C32.044151,74.521194 32.027561,74.104759 31.996105,73.035675 
	C31.658291,71.568497 31.335344,70.753960 31.012396,69.939430 
	C31.007959,67.251457 31.003523,64.563484 31.372009,61.503563 
	C35.864902,62.085609 39.984875,63.039608 44.395145,64.148979 
	C46.125027,66.534401 47.564602,68.764450 48.816544,71.295654 
	C44.686356,76.750084 39.013378,74.476410 33.993710,75.006714 
z"/>
<path fill="#BA4D5B" opacity="1.000000" stroke="none" 
	d="
M44.104843,63.993607 
	C39.984875,63.039608 35.864902,62.085609 31.381058,61.053635 
	C31.283689,56.583473 31.550200,52.191292 31.897697,47.390320 
	C34.056133,46.668564 36.133583,46.355595 38.683075,46.394009 
	C40.794163,51.826710 42.433208,56.908020 44.065411,62.323704 
	C44.073990,63.103252 44.089417,63.548428 44.104843,63.993607 
z"/>
<path fill="#9B4757" opacity="1.000000" stroke="none" 
	d="
M31.018978,70.278435 
	C31.335344,70.753960 31.658291,71.568497 31.992096,72.722198 
	C31.677155,72.246727 31.351358,71.432083 31.018978,70.278435 
z"/>
<path fill="#A33F4E" opacity="1.000000" stroke="none" 
	d="
M44.072258,61.989334 
	C42.433208,56.908020 40.794163,51.826710 39.075054,46.367634 
	C38.994995,45.989872 39.010277,45.503639 39.019188,45.260765 
	C47.264996,45.140770 55.501873,45.265282 63.738842,45.383396 
	C64.387680,45.392704 65.324188,45.632481 65.642128,45.300617 
	C68.975471,41.821293 71.134743,44.571831 73.721992,46.830311 
	C73.313354,50.075073 72.621048,53.150227 71.512703,56.707222 
	C69.482941,57.450897 67.731133,58.254734 66.278374,57.884659 
	C58.187153,55.823475 51.111515,58.688751 44.072258,61.989334 
z"/>
<path fill="#AB4253" opacity="1.000000" stroke="none" 
	d="
M33.994156,75.433174 
	C39.013378,74.476410 44.686356,76.750084 49.071995,71.293488 
	C49.685421,70.989052 49.855755,70.987938 50.093849,71.323212 
	C52.110325,74.437134 54.059044,77.214676 56.007763,79.992210 
	C55.116894,84.978577 50.673080,82.609039 47.959148,83.750366 
	C45.363022,84.842155 42.452259,85.185760 39.334396,85.933289 
	C37.556309,84.382027 36.123615,82.755676 34.360764,81.050751 
	C34.018608,79.267998 34.006607,77.563812 33.994156,75.433174 
z"/>
<path fill="#D0515D" opacity="1.000000" stroke="none" 
	d="
M101.984276,87.019043 
	C101.983299,87.459267 101.982330,87.899498 101.606972,88.743256 
	C98.215881,90.216789 95.450562,90.437714 93.135330,87.526024 
	C92.508347,86.737511 91.071846,85.987701 90.151482,86.133408 
	C82.947525,87.273857 77.801559,83.748352 73.003311,78.620789 
	C72.222038,74.492813 71.557121,70.750397 70.944496,66.758568 
	C71.034164,66.343430 71.071548,66.177704 71.108925,66.011986 
	C76.822998,64.387802 82.537064,62.763618 88.619621,61.066467 
	C89.165520,61.262474 89.375885,61.502583 89.811501,61.857346 
	C93.115318,69.596954 96.226822,77.193054 99.667252,84.896400 
	C99.996162,85.003654 99.999886,85.000000 100.082886,85.293976 
	C100.772018,86.064987 101.378143,86.542015 101.984276,87.019043 
z"/>
<path fill="#9B3B4B" opacity="1.000000" stroke="none" 
	d="
M71.078674,65.596329 
	C71.071548,66.177704 71.034164,66.343430 70.600647,66.672546 
	C66.077538,66.557228 61.932724,66.432312 57.828568,65.956604 
	C53.712616,65.479523 50.800507,66.471397 50.026093,70.986816 
	C49.855755,70.987938 49.685421,70.989052 49.259636,70.992332 
	C47.564602,68.764450 46.125027,66.534401 44.395145,64.148987 
	C44.089417,63.548428 44.073990,63.103252 44.065411,62.323704 
	C51.111515,58.688751 58.187153,55.823475 66.278374,57.884659 
	C67.731133,58.254734 69.482941,57.450897 71.479446,57.117470 
	C71.590950,59.757473 71.319687,62.469070 71.078674,65.596329 
z"/>
<path fill="#9C3452" opacity="1.000000" stroke="none" 
	d="
M23.140255,155.365234 
	C26.245321,155.782043 29.504202,156.537735 32.889122,157.639221 
	C29.774797,157.224701 26.534431,156.464417 23.140255,155.365234 
z"/>
<path fill="#9C3452" opacity="1.000000" stroke="none" 
	d="
M36.207951,158.190216 
	C36.629456,158.153320 37.259964,158.314163 37.954639,158.721054 
	C37.484856,158.774048 36.950905,158.581009 36.207951,158.190216 
z"/>
<path fill="#D15660" opacity="1.000000" stroke="none" 
	d="
M73.119675,79.006348 
	C77.801559,83.748352 82.947525,87.273857 90.151482,86.133408 
	C91.071846,85.987701 92.508347,86.737511 93.135330,87.526024 
	C95.450562,90.437714 98.215881,90.216789 101.607697,89.073425 
	C104.272034,93.101814 106.561272,97.203568 108.925888,101.652359 
	C101.973778,102.333008 94.946289,102.666618 87.459091,103.000420 
	C85.264160,102.015648 83.528931,101.030693 81.456108,100.027908 
	C79.905624,98.195610 78.692741,96.381149 77.199638,93.936172 
	C75.550743,88.875160 74.182060,84.444672 72.892899,79.763123 
	C73.021507,79.343498 73.070595,79.174927 73.119675,79.006348 
z"/>
<path fill="#8C3343" opacity="1.000000" stroke="none" 
	d="
M72.813377,80.014183 
	C74.182060,84.444672 75.550743,88.875160 77.006866,93.678673 
	C74.934967,93.143456 72.775620,92.235222 70.302643,91.177170 
	C66.458549,88.196388 62.928082,85.365425 59.229645,81.884460 
	C60.109505,80.273788 61.195667,78.461014 62.198246,78.506119 
	C65.752045,78.665985 69.277306,79.460281 72.813377,80.014183 
z"/>
<path fill="#973146" opacity="1.000000" stroke="none" 
	d="
M80.864212,102.006607 
	C85.820976,109.658989 90.482803,117.417618 95.186127,125.544098 
	C93.642830,124.767548 92.058037,123.623131 90.228638,122.241005 
	C89.126022,121.149353 88.268005,120.295418 87.201317,119.217567 
	C84.396294,115.213806 81.799934,111.433968 79.100296,107.329979 
	C79.521111,105.374840 80.045197,103.743835 80.864212,102.006607 
z"/>
<path fill="#943848" opacity="1.000000" stroke="none" 
	d="
M72.892899,79.763123 
	C69.277306,79.460281 65.752045,78.665985 62.198246,78.506119 
	C61.195667,78.461014 60.109505,80.273788 59.039238,81.605240 
	C58.187366,81.415100 57.357929,80.854172 56.268127,80.142731 
	C54.059044,77.214676 52.110325,74.437134 50.093849,71.323212 
	C50.800507,66.471397 53.712616,65.479523 57.828568,65.956604 
	C61.932724,66.432312 66.077538,66.557228 70.548370,66.921967 
	C71.557121,70.750397 72.222038,74.492813 73.003311,78.620789 
	C73.070595,79.174927 73.021507,79.343498 72.892899,79.763123 
z"/>
<path fill="#AA3D56" opacity="1.000000" stroke="none" 
	d="
M64.008423,133.610168 
	C63.841122,134.254105 63.631577,134.497025 63.195889,134.855652 
	C62.335007,133.257004 61.666882,131.513855 60.997505,129.386566 
	C61.997364,130.414291 62.998470,131.826126 64.008423,133.610168 
z"/>
<path fill="#D75D63" opacity="1.000000" stroke="none" 
	d="
M101.903976,86.723793 
	C101.378143,86.542015 100.772018,86.064987 100.081108,85.295639 
	C100.605438,85.478386 101.214554,85.953468 101.903976,86.723793 
z"/>
<path fill="#9C3452" opacity="1.000000" stroke="none" 
	d="
M45.117783,159.290543 
	C48.725002,157.986694 52.446918,156.989594 56.577286,155.989807 
	C56.745331,156.796646 56.504925,157.606155 56.133072,158.705597 
	C52.411907,159.196136 48.822189,159.396713 45.117783,159.290543 
z"/>
<path fill="#9C3452" opacity="1.000000" stroke="none" 
	d="
M60.323441,151.931808 
	C61.445377,149.072144 62.893929,146.146530 64.664078,143.098907 
	C64.990715,144.371902 64.995766,145.766937 65.001328,147.579803 
	C63.551243,149.287048 62.100651,150.576462 60.323441,151.931808 
z"/>
<path fill="#9C3452" opacity="1.000000" stroke="none" 
	d="
M57.283379,155.905121 
	C57.464245,155.380005 57.939320,154.773438 58.706638,154.081848 
	C58.525120,154.605774 58.051353,155.214706 57.283379,155.905121 
z"/>
<path fill="#BC3E55" opacity="1.000000" stroke="none" 
	d="
M37.960693,140.371735 
	C37.800613,140.138733 37.792591,139.910034 37.784573,139.681351 
	C37.913517,139.685226 38.042465,139.689102 38.171410,139.692978 
	C38.151859,139.920670 38.132305,140.148361 37.960693,140.371735 
z"/>
</svg>