<svg version="1.1" id="Layer_1" xmlns="http://www.w3.org/2000/svg" xmlns:xlink="http://www.w3.org/1999/xlink" x="0px" y="0px"
	 width="100%" viewBox="0 0 222 199" enable-background="new 0 0 222 199" xml:space="preserve">
<path fill="#FEFEFE" opacity="1.000000" stroke="none" 
	d="
M223.000000,74.000000 
	C223.000000,116.333336 223.000000,158.166672 223.000000,200.000000 
	C149.000000,200.000000 75.000000,200.000000 1.000000,200.000000 
	C1.000000,133.666672 1.000000,67.333336 1.000000,1.000000 
	C75.000000,1.000000 149.000000,1.000000 223.000000,1.000000 
	C223.000000,25.166666 223.000000,49.333332 223.000000,74.000000 
M144.047958,114.281319 
	C144.045166,112.526901 144.042374,110.772476 144.776382,108.909897 
	C147.555954,106.975014 148.665649,105.021317 144.819855,102.180267 
	C144.987259,100.808250 145.154648,99.436226 145.843262,97.983017 
	C146.227493,97.652588 146.611740,97.322159 147.648010,96.906815 
	C147.751221,95.937035 147.854431,94.967262 147.971634,93.102737 
	C147.626022,90.060043 147.280426,87.017357 146.843643,83.128265 
	C146.876389,81.427261 146.909134,79.726257 147.559967,77.462059 
	C147.700714,74.680550 148.180023,71.859634 147.862564,69.131447 
	C147.652710,67.328140 146.298828,65.657967 145.230743,63.168015 
	C145.131912,62.115578 145.033096,61.063141 145.637924,59.900993 
	C147.481415,56.674522 146.422852,54.446327 143.022415,52.328762 
	C142.945206,51.678715 142.867996,51.028667 142.934296,49.485020 
	C142.596695,47.398563 142.610336,45.173046 141.850464,43.253780 
	C140.115585,38.871815 137.311539,34.802200 136.251999,30.297533 
	C135.339035,26.416050 133.761627,24.094606 129.714188,22.507065 
	C129.100494,21.437817 128.486801,20.368567 127.795876,18.724335 
	C127.503769,18.492039 127.211662,18.259741 126.502449,17.792427 
	C126.281097,17.554079 126.121964,17.279650 126.309570,16.336071 
	C127.422295,11.030467 123.504929,10.170960 119.388641,8.730689 
	C118.939919,8.097640 118.491188,7.464591 118.015778,6.359166 
	C117.861786,6.106543 117.707794,5.853920 117.553810,5.601295 
	C117.360321,5.981208 117.166840,6.361120 116.494286,7.038572 
	C116.059410,7.385010 115.624535,7.731448 114.645294,8.201621 
	C114.441154,8.498975 114.237007,8.796328 113.847809,9.535930 
	C113.640770,9.801660 113.371010,9.961611 112.295792,9.995239 
	C108.766235,11.104003 105.999809,12.870135 106.121025,17.002363 
	C106.121025,17.002363 106.161415,17.139902 105.397934,17.052046 
	C100.243835,18.042446 99.367088,22.204582 98.406837,26.400084 
	C98.406837,26.400084 98.400375,26.490038 97.579941,26.195824 
	C93.525177,26.268606 95.419464,29.236771 95.197868,31.047770 
	C95.197868,31.047770 95.196075,31.164503 94.423286,31.069931 
	C93.402954,32.130524 91.989876,33.020542 91.440445,34.285645 
	C90.115944,37.335354 88.184753,39.189793 84.160385,38.821537 
	C73.494186,30.516047 61.964279,23.683762 49.375576,18.730736 
	C47.684143,18.065241 45.666016,18.230074 43.385002,18.310242 
	C43.297588,18.632143 43.210175,18.954044 43.091633,19.658760 
	C43.091633,19.658760 42.859386,19.964661 42.128426,19.986202 
	C37.620857,22.164921 36.222954,25.818634 38.194641,30.752317 
	C38.044724,31.168837 37.894806,31.585356 37.371315,32.260983 
	C37.150944,32.493092 37.039024,32.769188 36.984497,33.556618 
	C36.984497,33.556618 36.846924,34.006165 36.380135,34.432655 
	C36.301388,35.046986 36.222641,35.661312 36.102318,36.851658 
	C36.005722,37.224056 35.909126,37.596451 35.139458,38.127010 
	C31.207987,41.902153 30.228214,46.154285 33.078323,51.680267 
	C32.994312,52.110550 32.910301,52.540833 32.103912,53.178169 
	C32.315987,57.109039 32.528065,61.039909 32.874580,65.813110 
	C33.018158,67.512001 33.161736,69.210899 32.692017,71.298103 
	C33.714588,74.562309 34.737164,77.826508 35.978348,81.106178 
	C35.978348,81.106178 36.145821,80.964836 36.158279,81.610176 
	C36.249279,82.030815 36.340279,82.451462 35.788357,83.197708 
	C34.314011,85.755096 35.774071,86.601250 37.999847,87.000000 
	C37.999847,87.000000 38.002853,86.994690 37.964718,87.766731 
	C37.560143,91.171547 36.663773,94.854958 42.619263,95.301880 
	C43.392056,96.584320 44.164848,97.866760 44.981735,99.729393 
	C45.332481,100.156204 45.683228,100.583023 46.586559,101.321983 
	C47.363060,102.287018 48.139557,103.252045 49.000217,104.809235 
	C49.419647,105.176109 49.839073,105.542984 50.644493,106.090431 
	C50.881901,106.273422 51.024433,106.512886 51.210636,107.343803 
	C51.506252,107.545746 51.801868,107.747681 52.011143,107.982582 
	C52.011143,107.982582 52.068687,107.910263 52.022614,108.666611 
	C52.282364,112.326859 55.073101,112.666893 58.383400,113.301430 
	C59.268990,114.144318 60.154583,114.987213 61.011200,116.601921 
	C62.026127,120.271072 64.708145,121.207787 68.589500,121.072197 
	C68.589500,121.072197 68.963242,121.378792 68.968422,122.181129 
	C69.164749,124.401817 68.764206,125.531509 65.988548,126.153458 
	C58.787613,127.766975 51.473175,129.452301 44.707790,132.304062 
	C32.717453,137.358261 21.074907,143.245300 9.351504,148.917496 
	C7.382664,149.870087 5.739425,151.495621 4.041855,153.461624 
	C5.058013,154.573364 6.074172,155.685120 7.132002,157.538879 
	C8.135680,158.003357 9.139359,158.467834 10.791650,159.131378 
	C14.244405,161.073074 17.697161,163.014771 21.448654,165.703629 
	C20.097654,167.888443 18.945560,170.231934 17.355137,172.225754 
	C13.813556,176.665588 10.052804,180.930618 5.988300,185.731125 
	C8.245994,186.564560 9.429891,187.126419 10.676109,187.442764 
	C27.253885,191.650940 43.952881,191.646912 60.594345,188.170181 
	C65.867790,187.068451 70.862442,184.632263 76.735977,182.770950 
	C81.634895,180.601868 86.855789,178.949539 91.358330,176.144272 
	C98.360008,171.781952 104.873207,166.635590 112.225777,161.685135 
	C112.425606,161.322968 112.625435,160.960815 113.003784,160.247955 
	C113.174026,160.033112 113.392944,159.896011 114.375015,159.886993 
	C115.280754,158.964310 116.186501,158.041626 117.766335,156.959198 
	C118.744110,155.554626 119.721893,154.150055 120.897224,152.850983 
	C120.897224,152.850983 120.730385,152.701569 121.524338,152.832870 
	C123.267021,152.122528 125.009697,151.412201 126.682167,151.616348 
	C126.059204,159.780106 125.252464,167.937347 124.962212,176.112930 
	C124.901291,177.829010 126.375587,180.511673 127.813301,181.094727 
	C129.077209,181.607315 131.280289,179.804077 133.875427,178.984222 
	C136.414459,176.839294 137.824539,167.625229 135.908463,165.296036 
	C135.655548,164.988586 134.974380,165.033401 134.549072,164.085815 
	C134.811859,162.730515 135.074646,161.375198 136.029846,159.901566 
	C139.190125,158.735916 140.124207,156.855423 137.947388,153.300385 
	C138.350235,152.551147 138.753082,151.801910 139.870773,151.014084 
	C142.676697,149.182068 146.533020,148.189697 146.221527,143.100586 
	C147.278015,142.628433 148.334488,142.156281 150.074417,141.990067 
	C153.362228,143.435577 154.147110,141.121017 155.244873,138.307312 
	C156.070404,137.833328 156.895935,137.359329 158.529770,136.955872 
	C163.629150,136.366989 165.127029,134.646454 163.370834,131.000626 
	C164.237076,129.972351 165.103302,128.944092 166.354599,128.431839 
	C168.238937,125.995850 170.123276,123.559853 172.762665,121.043114 
	C175.560150,119.712502 178.357651,118.381897 181.849625,117.044922 
	C183.073822,117.211273 184.298004,117.377632 185.664642,117.563339 
	C184.764679,111.022705 183.917557,104.866188 182.836716,97.011009 
	C180.670059,99.543678 179.255020,101.197762 177.158051,102.812019 
	C176.320297,102.495796 175.482559,102.179565 174.842789,100.962532 
	C175.006042,98.686020 175.079498,95.914886 171.749100,97.639435 
	C170.044586,98.522079 169.216736,101.097702 167.488785,103.361969 
	C164.028549,105.589661 160.568298,107.817352 156.303528,110.032028 
	C153.929199,110.722031 150.524826,110.206154 150.765793,114.959984 
	C148.538940,117.063011 146.312088,119.166046 144.009628,120.577354 
	C143.345444,119.390327 142.681274,118.203300 142.657623,116.918694 
	C143.096893,116.268433 143.536163,115.618179 144.047958,114.281319 
M208.539993,77.611427 
	C206.997574,79.733444 205.455170,81.855461 203.158203,83.991570 
	C197.355591,85.551567 185.963379,98.733765 187.230652,103.631584 
	C192.484619,100.019012 197.487274,96.579239 202.727829,92.975899 
	C202.556152,92.030319 202.271759,90.463837 201.987350,88.897362 
	C202.541779,89.064354 203.096207,89.231346 203.650635,89.398346 
	C204.732666,87.661690 205.814713,85.925034 207.261963,83.772537 
	C209.152756,81.179901 211.043564,78.587257 213.692398,75.987213 
	C217.329163,74.523254 217.342682,71.920204 215.854782,68.043442 
	C216.493790,63.036774 218.835739,57.893791 214.944443,52.860836 
	C210.713745,55.491375 211.555496,59.306576 210.831482,63.167873 
	C210.202988,66.317886 210.786972,69.757179 206.743088,71.690483 
	C205.488937,72.290070 204.367126,76.461044 208.539993,77.611427 
M192.884872,86.095131 
	C193.514084,86.396706 194.143280,86.698273 194.772491,86.999840 
	C194.532410,84.867188 199.399063,83.006210 195.223862,79.905983 
	C195.870087,78.274734 196.516296,76.643486 197.916077,74.979668 
	C199.145203,71.585045 200.384323,68.193764 201.529007,64.770897 
	C201.551010,64.705070 200.459641,64.266899 199.828140,63.326675 
	C199.933609,62.888073 200.039078,62.449471 200.808746,61.994110 
	C201.417587,61.611252 202.026413,61.228390 202.635254,60.845535 
	C201.800323,60.227406 200.965378,59.609276 199.976135,58.337822 
	C200.004044,57.893154 200.031952,57.448490 200.648605,56.916367 
	C200.428284,56.277733 200.207947,55.639099 199.725815,54.301750 
	C198.555817,51.418819 197.385818,48.535889 196.215820,45.652958 
	C195.387909,45.816353 194.560013,45.979748 193.732101,46.143143 
	C193.732101,49.359135 193.732101,52.575130 193.041260,56.050323 
	C194.114471,59.081345 195.187683,62.112366 196.295425,65.922523 
	C196.111359,66.942574 195.927307,67.962624 195.052124,69.101326 
	C192.756348,71.120575 190.078705,73.069313 193.649414,76.963425 
	C192.541382,79.662666 191.433350,82.361916 190.196777,85.374283 
	C191.132812,85.374283 191.917374,85.374283 192.884872,86.095131 
M188.032196,88.483154 
	C186.529739,90.937950 185.027283,93.392746 183.524826,95.847534 
	C184.254807,96.318382 184.984802,96.789230 185.714783,97.260078 
	C187.433014,94.676247 189.151260,92.092407 190.869492,89.508568 
	C190.151581,89.066849 189.433685,88.625137 188.032196,88.483154 
M198.517532,42.409359 
	C198.517532,42.409359 198.586456,42.523804 198.517532,42.409359 
M181.517197,96.407494 
	C181.517197,96.407494 181.586945,96.522835 181.517197,96.407494 
z"/>
<path fill="#6D4053" opacity="1.000000" stroke="none" 
	d="
M133.068588,179.023621 
	C131.280289,179.804077 129.077209,181.607315 127.813301,181.094727 
	C126.375587,180.511673 124.901291,177.829010 124.962212,176.112930 
	C125.252464,167.937347 126.059204,159.780106 126.871246,150.894958 
	C127.729424,147.801620 128.398514,145.429657 129.033798,143.028854 
	C129.000000,143.000000 129.065582,143.060287 129.340454,143.139221 
	C129.795227,142.892044 129.975098,142.565948 130.423386,142.024628 
	C132.792908,138.539490 134.894028,135.269577 137.321838,131.991776 
	C138.084213,131.979095 138.519913,131.974304 138.965408,132.349884 
	C136.998108,136.649643 134.821182,140.483765 133.101288,144.512955 
	C131.452850,148.374771 130.278732,152.439026 128.896164,156.414322 
	C129.396591,156.660812 129.897018,156.907318 130.397446,157.153809 
	C131.442215,156.234039 133.443832,155.238327 133.377808,154.406738 
	C132.920364,148.644882 137.540436,146.891281 140.808746,143.910370 
	C141.749680,143.052185 141.513748,140.903656 141.765594,139.612320 
	C143.008148,140.687485 145.614334,134.176300 147.848358,139.300690 
	C146.789566,140.963333 145.885773,142.335083 144.792679,143.999283 
	C142.787582,146.545380 140.971756,148.799026 139.155945,151.052689 
	C138.753082,151.801910 138.350235,152.551147 137.581726,153.715958 
	C136.589859,156.094315 135.963638,158.057098 135.337433,160.019897 
	C135.074646,161.375198 134.811859,162.730515 134.365509,164.856445 
	C133.810837,170.092606 133.439713,174.558105 133.068588,179.023621 
z"/>
<path fill="#BF787C" opacity="1.000000" stroke="none" 
	d="
M144.934265,60.010704 
	C145.033096,61.063141 145.131912,62.115578 145.245331,63.958271 
	C145.820572,69.174103 146.381241,73.599678 146.941895,78.025253 
	C146.909134,79.726257 146.876389,81.427261 146.653534,83.879410 
	C146.082947,89.108437 145.702499,93.586327 145.322052,98.064209 
	C145.154648,99.436226 144.987259,100.808250 144.761322,102.723549 
	C144.702789,103.266830 144.800613,103.541481 144.575104,103.795403 
	C144.233704,104.701775 144.117798,105.354218 143.910385,106.255898 
	C143.809250,106.855789 143.799622,107.206459 143.540680,107.843872 
	C142.811569,110.068039 142.331772,112.005455 141.787048,114.085312 
	C141.722137,114.227760 141.790909,114.533203 141.561844,114.778839 
	C141.185104,115.667130 141.037430,116.309792 140.645187,117.170868 
	C140.188705,118.235146 139.976807,119.081001 139.514069,120.161728 
	C138.324371,122.907288 137.385483,125.417976 136.194122,128.133926 
	C133.613724,132.551956 131.285782,136.764725 128.830719,141.331100 
	C128.824249,142.143234 128.944916,142.601761 129.065582,143.060287 
	C129.065582,143.060287 129.000000,143.000000 128.692566,142.861282 
	C125.833549,146.048904 123.281967,149.375229 120.730385,152.701569 
	C120.730385,152.701569 120.897224,152.850983 120.473114,152.902924 
	C119.040138,154.000046 118.031273,155.045227 116.823944,155.903595 
	C116.568176,155.544342 116.510864,155.371918 116.330215,154.782471 
	C116.195183,152.924210 116.183479,151.482971 116.516449,149.983047 
	C125.474121,146.469559 126.713417,137.114899 132.001709,130.754211 
	C132.000961,130.507935 132.011337,130.015472 132.338165,129.838181 
	C133.117416,127.770180 133.569839,125.879471 134.233734,123.709503 
	C136.623947,117.618774 138.802689,111.807297 140.986359,105.745155 
	C140.992874,105.327347 140.994492,105.160202 141.285751,104.720428 
	C142.053177,99.966278 142.530945,95.484741 143.011719,90.752968 
	C143.011688,90.335899 143.008667,90.169083 143.009384,89.750290 
	C143.012726,89.330299 143.012329,89.162285 143.017746,88.567398 
	C143.024857,86.435150 143.026154,84.729774 143.016632,83.014969 
	C143.005814,83.005524 143.021820,83.018143 143.264679,82.848557 
	C143.667862,82.123428 143.828201,81.567886 143.997345,80.558189 
	C143.344833,74.725479 142.683502,69.346924 142.024017,63.536224 
	C140.671051,57.207352 139.244965,51.325317 138.024887,45.400852 
	C137.795761,44.288311 138.389496,43.006313 138.888565,41.970135 
	C140.379333,44.884712 141.585052,47.631668 142.790771,50.378620 
	C142.867996,51.028667 142.945206,51.678715 143.096054,53.013348 
	C143.757874,55.802193 144.346069,57.906448 144.934265,60.010704 
z"/>
<path fill="#BC747A" opacity="1.000000" stroke="none" 
	d="
M75.984673,182.806747 
	C70.862442,184.632263 65.867790,187.068451 60.594345,188.170181 
	C43.952881,191.646912 27.253885,191.650940 10.676109,187.442764 
	C9.429891,187.126419 8.245994,186.564560 5.988300,185.731125 
	C10.052804,180.930618 13.813556,176.665588 17.355137,172.225754 
	C18.945560,170.231934 20.097654,167.888443 21.594645,165.396179 
	C22.282448,165.355911 22.824259,165.623093 23.357597,166.111816 
	C23.349123,166.333328 23.323921,166.775986 23.210533,167.156189 
	C22.725971,169.018402 22.354797,170.500443 21.991812,171.991241 
	C22.000000,172.000000 21.983219,171.984009 21.651073,172.029510 
	C19.542852,174.055115 17.766777,176.035217 15.936148,178.350037 
	C14.602459,180.092010 13.323322,181.499252 11.203789,183.831055 
	C14.106680,184.735382 16.132202,185.514542 18.226351,185.993866 
	C28.998604,188.459564 39.880093,188.540543 50.755867,186.960724 
	C56.290604,186.156738 61.770435,184.919373 67.218582,183.637695 
	C67.986275,183.457108 68.431419,181.905487 69.457687,180.993408 
	C71.900673,181.057755 73.911842,181.117157 75.941170,181.448563 
	C75.967773,182.082611 75.976219,182.444687 75.984673,182.806747 
z"/>
<path fill="#A66970" opacity="1.000000" stroke="none" 
	d="
M33.305309,70.909790 
	C33.161736,69.210899 33.018158,67.512001 32.892700,64.940292 
	C32.882641,60.368683 32.854465,56.669899 32.826290,52.971115 
	C32.910301,52.540833 32.994312,52.110550 33.313934,51.053684 
	C34.303875,46.274349 35.058205,42.121601 35.812531,37.968849 
	C35.909126,37.596451 36.005722,37.224056 36.362137,36.350697 
	C36.696949,35.235210 36.771935,34.620689 36.846924,34.006165 
	C36.846924,34.006165 36.984497,33.556618 37.229980,33.215359 
	C37.787754,32.652054 37.877563,32.361313 37.744888,32.001877 
	C37.894806,31.585356 38.044724,31.168837 38.462936,30.171207 
	C40.107281,26.381618 41.483334,23.173140 42.859386,19.964661 
	C42.859386,19.964661 43.091633,19.658760 43.310501,19.314312 
	C43.619301,18.650045 43.709236,18.330227 43.799171,18.010410 
	C45.666016,18.230074 47.684143,18.065241 49.375576,18.730736 
	C61.964279,23.683762 73.494186,30.516047 84.578079,39.248230 
	C85.412575,40.333828 85.829376,40.992733 85.879105,41.731667 
	C84.080368,41.091022 82.589851,40.466366 81.228058,39.631691 
	C77.128334,37.118889 73.078735,34.524319 68.803955,31.688026 
	C67.080544,30.933140 65.562759,30.451862 63.981407,29.630325 
	C62.956451,28.851748 61.995068,28.413431 61.016869,27.987133 
	C61.000050,27.999149 61.024746,27.966015 60.960571,27.612587 
	C58.280910,25.976185 55.599155,24.811224 53.063030,23.386942 
	C46.774502,19.855320 44.691540,20.688509 42.899078,27.630419 
	C42.610023,28.749872 42.260399,29.853687 41.581856,31.036903 
	C40.478195,33.405415 39.731461,35.701756 38.981133,38.239319 
	C38.977543,38.480541 38.968231,38.962948 38.602783,39.044930 
	C37.505657,41.750626 36.773979,44.374336 36.029785,47.430588 
	C35.683628,52.565823 35.349987,57.268524 35.004868,62.410126 
	C35.006207,64.895218 35.019024,66.941406 35.020363,69.395355 
	C35.686554,73.526154 36.364231,77.249184 36.817814,80.978867 
	C36.593723,80.985519 36.145821,80.964836 36.145821,80.964836 
	C36.145821,80.964836 35.978348,81.106178 35.883553,80.713570 
	C34.960941,77.183907 34.133125,74.046844 33.305309,70.909790 
z"/>
<path fill="#AF636D" opacity="1.000000" stroke="none" 
	d="
M113.038528,10.015785 
	C113.371010,9.961611 113.640770,9.801660 114.199104,9.233765 
	C114.763489,8.647029 114.976570,8.362458 115.189659,8.077887 
	C115.624535,7.731448 116.059410,7.385010 116.997665,6.952155 
	C117.681526,6.854339 117.861992,6.842940 118.042465,6.831542 
	C118.491188,7.464591 118.939919,8.097640 119.695297,9.228640 
	C122.009651,12.140776 124.017349,14.554960 126.025047,16.969143 
	C126.121964,17.279650 126.281097,17.554079 126.769928,18.185139 
	C127.315971,18.818340 127.594536,19.058828 127.873108,19.299316 
	C128.486801,20.368567 129.100494,21.437817 129.909058,23.095463 
	C132.858765,29.475887 135.613586,35.267914 137.944366,41.041592 
	C136.685944,41.003536 135.851593,40.983833 135.015411,40.575226 
	C131.833282,29.851484 126.258415,20.927053 118.760162,12.719679 
	C116.710587,12.770324 114.090202,12.444883 113.217453,13.527844 
	C107.165886,21.037008 101.551865,28.896599 95.635864,36.518326 
	C93.316849,39.505966 90.582420,42.171169 87.931076,44.729729 
	C87.534264,44.010185 87.243553,43.544132 86.967850,42.839996 
	C86.982849,42.601910 86.987114,42.124809 87.358627,42.095360 
	C90.218781,38.432110 92.707428,34.798306 95.196075,31.164503 
	C95.196075,31.164503 95.197868,31.047770 95.475273,30.952419 
	C96.635246,29.401394 97.517807,27.945715 98.400375,26.490038 
	C98.400375,26.490038 98.406837,26.400084 98.746887,26.281597 
	C101.445099,23.155373 103.803253,20.147636 106.161407,17.139900 
	C106.161415,17.139902 106.121025,17.002363 106.435226,16.941545 
	C108.845795,14.592414 110.942162,12.304100 113.038528,10.015785 
z"/>
<path fill="#6F4B5A" opacity="1.000000" stroke="none" 
	d="
M138.955597,131.969513 
	C138.519913,131.974304 138.084213,131.979095 137.365509,131.647583 
	C137.555359,130.264633 138.028244,129.218002 138.710693,127.945602 
	C140.309525,125.887947 141.698792,124.056076 143.317413,122.137352 
	C143.862137,121.883659 144.041626,121.623192 144.085236,121.269089 
	C146.312088,119.166046 148.538940,117.063011 151.324310,114.657486 
	C153.624588,112.918350 155.366333,111.481705 157.108063,110.045052 
	C160.568298,107.817352 164.028549,105.589661 168.097412,103.126427 
	C170.685623,102.548370 172.665222,102.205856 174.644806,101.863342 
	C175.482559,102.179565 176.320297,102.495796 177.765778,102.982681 
	C181.883392,106.237091 184.618607,109.515045 181.123230,114.018181 
	C181.037308,113.479126 181.006180,113.263000 180.956345,112.683144 
	C176.649734,103.799965 173.971298,103.040543 166.920853,108.452225 
	C163.129242,111.362541 159.557907,114.582680 155.622177,117.275734 
	C151.937439,119.797050 146.788712,120.501862 145.670105,125.988380 
	C145.587280,126.394592 144.565994,126.538506 144.121338,126.954430 
	C142.368988,128.593582 140.672699,130.292664 138.955597,131.969513 
z"/>
<path fill="#F9E6EA" opacity="1.000000" stroke="none" 
	d="
M3.945741,152.810226 
	C5.739425,151.495621 7.382664,149.870087 9.351504,148.917496 
	C21.074907,143.245300 32.717453,137.358261 44.707790,132.304062 
	C51.473175,129.452301 58.787613,127.766975 65.988548,126.153458 
	C68.764206,125.531509 69.164749,124.401817 69.182800,121.745407 
	C69.397186,121.309685 69.834091,121.355431 70.022354,121.642136 
	C73.207008,123.941940 76.203407,125.955048 78.990097,128.311066 
	C74.138893,128.697998 69.497383,128.742004 64.445175,128.798859 
	C57.671467,130.683899 51.308453,132.556076 44.555077,134.497711 
	C38.498798,137.319443 32.801636,140.010483 27.192766,142.874466 
	C26.040224,143.462982 25.217684,144.697784 24.244572,145.580765 
	C24.246111,145.526840 24.145569,145.487686 23.728399,145.444397 
	C23.097736,145.846069 22.884245,146.291031 22.696266,146.586792 
	C22.721781,146.437592 22.433004,146.346664 22.392349,146.339661 
	C22.351692,146.332657 22.260098,146.291275 21.956383,146.131378 
	C18.370213,147.577255 15.087756,149.183060 11.434455,150.822235 
	C8.690989,151.507156 6.318366,152.158691 3.945741,152.810226 
z"/>
<path fill="#7F4358" opacity="1.000000" stroke="none" 
	d="
M76.360321,182.788849 
	C75.976219,182.444687 75.967773,182.082611 75.969284,181.154678 
	C75.988167,180.393311 75.997108,180.197815 76.323036,179.845703 
	C82.588821,175.274506 91.614647,176.310974 95.864189,168.854233 
	C95.978668,168.653351 96.482414,168.533554 96.762657,168.588806 
	C101.483887,169.519791 102.036194,166.544708 102.322968,162.981262 
	C106.456177,161.889557 109.064278,159.359375 111.395210,156.024673 
	C112.561920,156.028564 113.339760,156.030350 114.069183,156.417053 
	C113.900681,157.813522 113.780609,158.825089 113.660545,159.836639 
	C113.392944,159.896011 113.174026,160.033112 112.624252,160.527924 
	C112.027634,161.145782 111.810547,161.483673 111.593452,161.821548 
	C104.873207,166.635590 98.360008,171.781952 91.358330,176.144272 
	C86.855789,178.949539 81.634895,180.601868 76.360321,182.788849 
z"/>
<path fill="#864958" opacity="1.000000" stroke="none" 
	d="
M69.834091,121.355431 
	C69.834091,121.355431 69.397186,121.309685 69.180214,121.344238 
	C68.963242,121.378792 68.589500,121.072197 68.197273,120.708694 
	C65.550087,118.840172 63.295128,117.335144 61.040176,115.830109 
	C60.154583,114.987213 59.268990,114.144318 57.970486,112.892792 
	C55.727943,110.959526 53.898315,109.434891 52.068687,107.910263 
	C52.068687,107.910263 52.011143,107.982582 51.987816,107.693459 
	C51.667023,107.205833 51.369553,107.007324 51.072086,106.808823 
	C51.024433,106.512886 50.881901,106.273422 50.412346,105.711945 
	C49.758816,104.961327 49.337437,104.589203 48.916054,104.217079 
	C48.139557,103.252045 47.363060,102.287018 46.272247,100.877274 
	C45.617836,100.004768 45.277740,99.576981 44.937645,99.149193 
	C44.164848,97.866760 43.392056,96.584320 42.273350,94.793465 
	C40.619240,91.854927 39.311047,89.424812 38.002853,86.994690 
	C38.002853,86.994690 37.999847,87.000000 38.003143,86.671402 
	C37.481388,85.185905 36.956333,84.028999 36.431282,82.872101 
	C36.340279,82.451462 36.249279,82.030815 36.152050,81.287506 
	C36.145821,80.964836 36.593723,80.985519 37.121834,81.149948 
	C40.091953,84.555328 42.533962,87.796265 44.978973,91.427612 
	C46.320709,94.213165 47.659439,96.608330 49.154289,99.313538 
	C51.033146,101.736351 52.403198,105.101646 54.550594,105.706322 
	C59.313465,107.047470 61.077572,111.014153 64.198837,114.264481 
	C66.277710,116.342384 68.147606,118.154320 69.981033,120.314789 
	C69.907753,120.894028 69.870926,121.124725 69.834091,121.355431 
z"/>
<path fill="#6F4859" opacity="1.000000" stroke="none" 
	d="
M180.975052,113.046867 
	C181.006180,113.263000 181.037308,113.479126 181.162521,114.355690 
	C181.222778,115.694519 181.188965,116.372910 181.155151,117.051300 
	C178.357651,118.381897 175.560150,119.712502 172.021667,120.962616 
	C167.241135,121.513260 167.361496,125.285515 165.969543,127.915817 
	C165.103302,128.944092 164.237076,129.972351 163.012543,131.494904 
	C161.009979,133.621216 159.365723,135.253281 157.721466,136.885330 
	C156.895935,137.359329 156.070404,137.833328 154.731476,138.610641 
	C152.609055,139.837357 151.000015,140.760742 149.390976,141.684143 
	C148.334488,142.156281 147.278015,142.628433 145.815613,143.371948 
	C145.409698,143.643311 144.981964,143.706833 144.981964,143.706833 
	C145.885773,142.335083 146.789566,140.963333 148.221619,139.289322 
	C154.015900,134.623535 160.019791,131.170181 163.406189,124.667442 
	C164.808823,121.974068 167.818848,119.874069 170.515030,118.160683 
	C173.770340,116.091980 177.468536,114.720253 180.975052,113.046867 
z"/>
<path fill="#F8F4F6" opacity="1.000000" stroke="none" 
	d="
M206.896744,84.188377 
	C205.814713,85.925034 204.732666,87.661690 203.650635,89.398346 
	C203.096207,89.231346 202.541779,89.064354 201.987350,88.897362 
	C202.271759,90.463837 202.556152,92.030319 202.727829,92.975899 
	C197.487274,96.579239 192.484619,100.019012 187.230652,103.631584 
	C185.963379,98.733765 197.355591,85.551567 203.639740,84.369949 
	C205.046417,84.561684 205.971588,84.375031 206.896744,84.188377 
z"/>
<path fill="#776068" opacity="1.000000" stroke="none" 
	d="
M200.059875,57.003822 
	C200.031952,57.448490 200.004044,57.893154 199.965149,59.036697 
	C200.017639,60.494007 200.081085,61.252434 200.144531,62.010864 
	C200.039078,62.449471 199.933609,62.888073 199.677887,63.847599 
	C199.255569,64.564537 198.983490,64.760551 198.577499,64.988525 
	C198.443588,65.020477 198.169724,65.049004 198.187256,64.636757 
	C199.009506,60.195892 195.983856,58.198723 193.732101,55.791122 
	C193.732101,52.575130 193.732101,49.359135 193.732101,46.143143 
	C194.560013,45.979748 195.387909,45.816353 196.215820,45.652958 
	C197.385818,48.535889 198.555817,51.418819 199.780563,54.984856 
	C199.910172,56.113251 199.985031,56.558537 200.059875,57.003822 
z"/>
<path fill="#894F5F" opacity="1.000000" stroke="none" 
	d="
M3.993799,153.135925 
	C6.318366,152.158691 8.690989,151.507156 11.502018,150.895218 
	C11.940424,150.934814 12.075889,151.080093 12.008317,151.433594 
	C10.149657,155.068512 11.661558,157.038147 14.639793,158.279694 
	C17.034966,159.278183 19.504663,160.097900 21.976795,161.320633 
	C22.463560,163.059631 22.914820,164.474945 23.366076,165.890289 
	C22.824259,165.623093 22.282448,165.355911 21.445274,165.022614 
	C17.697161,163.014771 14.244405,161.073074 10.337823,158.730103 
	C8.952773,157.818176 8.021551,157.307510 7.090330,156.796860 
	C6.074172,155.685120 5.058013,154.573364 3.993799,153.135925 
z"/>
<path fill="#664F5A" opacity="1.000000" stroke="none" 
	d="
M211.497955,62.822914 
	C211.555496,59.306576 210.713745,55.491375 214.944443,52.860836 
	C218.835739,57.893791 216.493790,63.036774 215.645996,68.556320 
	C215.088898,69.112259 214.740570,69.155312 213.950714,69.118881 
	C213.214661,68.987350 212.920135,68.935318 212.734558,68.535614 
	C212.394989,66.399597 211.946472,64.611259 211.497955,62.822914 
z"/>
<path fill="#F8F4F6" opacity="1.000000" stroke="none" 
	d="
M181.502380,117.048111 
	C181.188965,116.372910 181.222778,115.694519 181.217316,114.678619 
	C184.618607,109.515045 181.883392,106.237091 178.106750,103.002586 
	C179.255020,101.197762 180.670059,99.543678 182.836716,97.011009 
	C183.917557,104.866188 184.764679,111.022705 185.664642,117.563339 
	C184.298004,117.377632 183.073822,117.211273 181.502380,117.048111 
z"/>
<path fill="#695E64" opacity="1.000000" stroke="none" 
	d="
M198.169724,65.049011 
	C198.169724,65.049004 198.443588,65.020477 198.785477,65.360840 
	C198.472412,68.804878 197.817474,71.908554 197.162506,75.012238 
	C196.516296,76.643486 195.870087,78.274734 194.934998,80.468201 
	C193.998077,82.478371 193.350006,83.926331 192.701935,85.374283 
	C191.917374,85.374283 191.132812,85.374283 190.196777,85.374283 
	C191.433350,82.361916 192.541382,79.662666 193.896118,76.308189 
	C194.676300,73.429527 195.209763,71.206100 195.743240,68.982674 
	C195.927307,67.962624 196.111359,66.942574 196.596893,65.581512 
	C197.322159,65.176666 197.745941,65.112839 198.169724,65.049011 
z"/>
<path fill="#FAE6E7" opacity="1.000000" stroke="none" 
	d="
M138.368423,41.059944 
	C135.613586,35.267914 132.858765,29.475887 130.114944,23.326763 
	C133.761627,24.094606 135.339035,26.416050 136.251999,30.297533 
	C137.311539,34.802200 140.115585,38.871815 141.850464,43.253780 
	C142.610336,45.173046 142.596695,47.398563 142.862534,49.931820 
	C141.585052,47.631668 140.379333,44.884712 138.857574,41.776367 
	C138.541534,41.414978 138.368423,41.059944 138.368423,41.059944 
z"/>
<path fill="#645A5F" opacity="1.000000" stroke="none" 
	d="
M212.625610,68.883278 
	C212.920135,68.935318 213.214661,68.987350 213.926453,69.454247 
	C213.873932,71.910942 213.404129,73.952774 212.934341,75.994614 
	C211.043564,78.587257 209.152756,81.179901 207.079346,83.980453 
	C205.971588,84.375031 205.046417,84.561684 204.016998,84.362907 
	C205.455170,81.855461 206.997574,79.733444 208.821304,77.018227 
	C210.276947,73.911110 211.451279,71.397194 212.625610,68.883278 
z"/>
<path fill="#F8F4F6" opacity="1.000000" stroke="none" 
	d="
M212.734558,68.535614 
	C211.451279,71.397194 210.276947,73.911110 208.906403,76.649719 
	C204.367126,76.461044 205.488937,72.290070 206.743088,71.690483 
	C210.786972,69.757179 210.202988,66.317886 211.164719,62.995392 
	C211.946472,64.611259 212.394989,66.399597 212.734558,68.535614 
z"/>
<path fill="#F8F4F6" opacity="1.000000" stroke="none" 
	d="
M133.472015,179.003922 
	C133.439713,174.558105 133.810837,170.092606 134.336761,165.271088 
	C134.974380,165.033401 135.655548,164.988586 135.908463,165.296036 
	C137.824539,167.625229 136.414459,176.839294 133.472015,179.003922 
z"/>
<path fill="#F8F4F6" opacity="1.000000" stroke="none" 
	d="
M188.373993,88.333282 
	C189.433685,88.625137 190.151581,89.066849 190.869492,89.508568 
	C189.151260,92.092407 187.433014,94.676247 185.714783,97.260078 
	C184.984802,96.789230 184.254807,96.318382 183.524826,95.847534 
	C185.027283,93.392746 186.529739,90.937950 188.373993,88.333282 
z"/>
<path fill="#FAE6E7" opacity="1.000000" stroke="none" 
	d="
M94.809677,31.117218 
	C92.707428,34.798306 90.218781,38.432110 87.196342,41.944252 
	C86.662552,41.822594 86.228493,41.735157 86.224274,41.712818 
	C86.220055,41.690479 86.246178,41.651634 86.246178,41.651634 
	C85.829376,40.992733 85.412575,40.333828 84.866180,39.405998 
	C88.184753,39.189793 90.115944,37.335354 91.440445,34.285645 
	C91.989876,33.020542 93.402954,32.130524 94.809677,31.117218 
z"/>
<path fill="#F7E4E6" opacity="1.000000" stroke="none" 
	d="
M121.127365,152.767212 
	C123.281967,149.375229 125.833549,146.048904 128.726364,142.890137 
	C128.398514,145.429657 127.729424,147.801620 126.906357,150.437714 
	C125.009697,151.412201 123.267021,152.122528 121.127365,152.767212 
z"/>
<path fill="#F9E6EA" opacity="1.000000" stroke="none" 
	d="
M35.475998,38.047928 
	C35.058205,42.121601 34.303875,46.274349 33.302624,50.724380 
	C30.228214,46.154285 31.207987,41.902153 35.475998,38.047928 
z"/>
<path fill="#FAE6E7" opacity="1.000000" stroke="none" 
	d="
M147.250931,77.743652 
	C146.381241,73.599678 145.820572,69.174103 145.358521,64.338364 
	C146.298828,65.657967 147.652710,67.328140 147.862564,69.131447 
	C148.180023,71.859634 147.700714,74.680550 147.250931,77.743652 
z"/>
<path fill="#F9E6EA" opacity="1.000000" stroke="none" 
	d="
M42.493904,19.975431 
	C41.483334,23.173140 40.107281,26.381618 38.496994,29.840019 
	C36.222954,25.818634 37.620857,22.164921 42.493904,19.975431 
z"/>
<path fill="#F8F4F6" opacity="1.000000" stroke="none" 
	d="
M198.187256,64.636765 
	C197.745941,65.112839 197.322159,65.176666 196.579636,65.191940 
	C195.187683,62.112366 194.114471,59.081345 193.386688,55.920723 
	C195.983856,58.198723 199.009506,60.195892 198.187256,64.636765 
z"/>
<path fill="#F8F4F6" opacity="1.000000" stroke="none" 
	d="
M174.743805,101.412933 
	C172.665222,102.205856 170.685623,102.548370 168.349350,102.899529 
	C169.216736,101.097702 170.044586,98.522079 171.749100,97.639435 
	C175.079498,95.914886 175.006042,98.686020 174.743805,101.412933 
z"/>
<path fill="#FAE6E7" opacity="1.000000" stroke="none" 
	d="
M145.582657,98.023613 
	C145.702499,93.586327 146.082947,89.108437 146.699127,84.302612 
	C147.280426,87.017357 147.626022,90.060043 147.710007,93.759827 
	C147.297577,95.275192 147.146774,96.133461 146.995972,96.991730 
	C146.611740,97.322159 146.227493,97.652588 145.582657,98.023613 
z"/>
<path fill="#F8F4F6" opacity="1.000000" stroke="none" 
	d="
M197.539307,74.995956 
	C197.817474,71.908554 198.472412,68.804878 198.919388,65.328888 
	C198.983490,64.760551 199.255569,64.564537 199.707687,64.185486 
	C200.459641,64.266899 201.551010,64.705070 201.529007,64.770897 
	C200.384323,68.193764 199.145203,71.585045 197.539307,74.995956 
z"/>
<path fill="#FAE6E7" opacity="1.000000" stroke="none" 
	d="
M105.779671,17.095972 
	C103.803253,20.147636 101.445099,23.155373 98.788834,26.265057 
	C99.367088,22.204582 100.243835,18.042446 105.779671,17.095972 
z"/>
<path fill="#FAE6E7" opacity="1.000000" stroke="none" 
	d="
M126.167313,16.652607 
	C124.017349,14.554960 122.009651,12.140776 119.938744,9.391756 
	C123.504929,10.170960 127.422295,11.030467 126.167313,16.652607 
z"/>
<path fill="#F8F4F6" opacity="1.000000" stroke="none" 
	d="
M166.162079,128.173828 
	C167.361496,125.285515 167.241135,121.513260 171.644135,121.002991 
	C170.123276,123.559853 168.238937,125.995850 166.162079,128.173828 
z"/>
<path fill="#F8F4F6" opacity="1.000000" stroke="none" 
	d="
M135.683624,159.960724 
	C135.963638,158.057098 136.589859,156.094315 137.575012,154.051605 
	C140.124207,156.855423 139.190125,158.735916 135.683624,159.960724 
z"/>
<path fill="#F8F4F6" opacity="1.000000" stroke="none" 
	d="
M144.792679,143.999283 
	C144.981964,143.706833 145.409698,143.643311 145.621384,143.599274 
	C146.533020,148.189697 142.676697,149.182068 139.513351,151.033386 
	C140.971756,148.799026 142.787582,146.545380 144.792679,143.999283 
z"/>
<path fill="#F8F4F6" opacity="1.000000" stroke="none" 
	d="
M213.313354,75.990906 
	C213.404129,73.952774 213.873932,71.910942 214.367981,69.533737 
	C214.740570,69.155312 215.088898,69.112259 215.683746,68.969040 
	C217.342682,71.920204 217.329163,74.523254 213.313354,75.990906 
z"/>
<path fill="#F8F4F6" opacity="1.000000" stroke="none" 
	d="
M192.793411,85.734711 
	C193.350006,83.926331 193.998077,82.478371 194.878006,80.844284 
	C199.399063,83.006210 194.532410,84.867188 194.772491,86.999840 
	C194.143280,86.698273 193.514084,86.396706 192.793411,85.734711 
z"/>
<path fill="#F9E6EA" opacity="1.000000" stroke="none" 
	d="
M32.465103,53.074642 
	C32.854465,56.669899 32.882641,60.368683 32.825478,64.519119 
	C32.528065,61.039909 32.315987,57.109039 32.465103,53.074642 
z"/>
<path fill="#FAE6E7" opacity="1.000000" stroke="none" 
	d="
M145.286102,59.955849 
	C144.346069,57.906448 143.757874,55.802193 143.207733,53.322407 
	C146.422852,54.446327 147.481415,56.674522 145.286102,59.955849 
z"/>
<path fill="#F8F4F6" opacity="1.000000" stroke="none" 
	d="
M158.125610,136.920593 
	C159.365723,135.253281 161.009979,133.621216 162.898529,131.823151 
	C165.127029,134.646454 163.629150,136.366989 158.125610,136.920593 
z"/>
<path fill="#FAE6E7" opacity="1.000000" stroke="none" 
	d="
M112.667160,10.005512 
	C110.942162,12.304100 108.845795,14.592414 106.445053,17.010683 
	C105.999809,12.870135 108.766235,11.104003 112.667160,10.005512 
z"/>
<path fill="#F8F4F6" opacity="1.000000" stroke="none" 
	d="
M195.397675,69.042000 
	C195.209763,71.206100 194.676300,73.429527 193.943161,75.921013 
	C190.078705,73.069313 192.756348,71.120575 195.397675,69.042000 
z"/>
<path fill="#F9E6EA" opacity="1.000000" stroke="none" 
	d="
M37.983788,87.380707 
	C39.311047,89.424812 40.619240,91.854927 41.988953,94.632034 
	C36.663773,94.854958 37.560143,91.171547 37.983788,87.380707 
z"/>
<path fill="#F9E6EA" opacity="1.000000" stroke="none" 
	d="
M32.998665,71.103943 
	C34.133125,74.046844 34.960941,77.183907 35.774246,80.705841 
	C34.737164,77.826508 33.714588,74.562309 32.998665,71.103943 
z"/>
<path fill="#F9E6EA" opacity="1.000000" stroke="none" 
	d="
M61.025688,116.216019 
	C63.295128,117.335144 65.550087,118.840172 67.964569,120.643379 
	C64.708145,121.207787 62.026127,120.271072 61.025688,116.216019 
z"/>
<path fill="#F8F4F6" opacity="1.000000" stroke="none" 
	d="
M156.705795,110.038544 
	C155.366333,111.481705 153.624588,112.918350 151.522949,114.388977 
	C150.524826,110.206154 153.929199,110.722031 156.705795,110.038544 
z"/>
<path fill="#F8F4F6" opacity="1.000000" stroke="none" 
	d="
M144.800613,103.541481 
	C144.800613,103.541481 144.702789,103.266830 144.772827,103.139435 
	C148.665649,105.021317 147.555954,106.975014 144.356262,108.596786 
	C143.887405,108.041489 143.838684,107.799301 143.789978,107.557121 
	C143.799622,107.206459 143.809250,106.855789 144.181580,106.038826 
	C144.629715,104.895508 144.715164,104.218498 144.800613,103.541481 
z"/>
<path fill="#F3DEE6" opacity="1.000000" stroke="none" 
	d="
M114.017776,159.861816 
	C113.780609,158.825089 113.900681,157.813522 114.320511,156.233398 
	C115.231354,155.509705 115.842453,155.354599 116.453545,155.199493 
	C116.510864,155.371918 116.568176,155.544342 116.828369,156.067947 
	C117.035240,156.653809 117.055573,156.887085 117.092247,157.118958 
	C116.186501,158.041626 115.280754,158.964310 114.017776,159.861816 
z"/>
<path fill="#F9E6EA" opacity="1.000000" stroke="none" 
	d="
M52.045650,108.288437 
	C53.898315,109.434891 55.727943,110.959526 57.683601,112.781090 
	C55.073101,112.666893 52.282364,112.326859 52.045650,108.288437 
z"/>
<path fill="#F8F4F6" opacity="1.000000" stroke="none" 
	d="
M144.047424,120.923218 
	C144.041626,121.623192 143.862137,121.883659 143.145432,121.842552 
	C141.751038,121.065353 140.757965,120.496109 139.764908,119.926857 
	C139.976807,119.081001 140.188705,118.235146 140.922134,117.189728 
	C141.628494,116.992828 141.813339,116.995499 142.001053,117.001007 
	C142.003937,117.003838 142.017090,117.016273 142.017090,117.016273 
	C142.681274,118.203300 143.345444,119.390327 144.047424,120.923218 
z"/>
<path fill="#FAE6E7" opacity="1.000000" stroke="none" 
	d="
M143.540665,107.843872 
	C143.838684,107.799301 143.887405,108.041489 143.987869,108.650864 
	C144.042374,110.772476 144.045166,112.526901 143.739746,114.513779 
	C142.905014,114.478455 142.378494,114.210663 141.851990,113.942871 
	C142.331772,112.005455 142.811569,110.068039 143.540665,107.843872 
z"/>
<path fill="#FAE6E7" opacity="1.000000" stroke="none" 
	d="
M97.990158,26.342930 
	C97.517807,27.945715 96.635246,29.401394 95.458557,31.007973 
	C95.419464,29.236771 93.525177,26.268606 97.990158,26.342930 
z"/>
<path fill="#F8F4F6" opacity="1.000000" stroke="none" 
	d="
M149.732697,141.837097 
	C151.000015,140.760742 152.609055,139.837357 154.563538,138.842926 
	C154.147110,141.121017 153.362228,143.435577 149.732697,141.837097 
z"/>
<path fill="#F7E4E6" opacity="1.000000" stroke="none" 
	d="
M117.429291,157.039078 
	C117.055573,156.887085 117.035240,156.653809 117.026825,156.254761 
	C118.031273,155.045227 119.040138,154.000046 120.374344,152.850159 
	C119.721893,154.150055 118.744110,155.554626 117.429291,157.039078 
z"/>
<path fill="#F9E6EA" opacity="1.000000" stroke="none" 
	d="
M36.109818,83.034904 
	C36.956333,84.028999 37.481388,85.185905 38.005524,86.670441 
	C35.774071,86.601250 34.314011,85.755096 36.109818,83.034904 
z"/>
<path fill="#F8F4F6" opacity="1.000000" stroke="none" 
	d="
M200.476639,62.002487 
	C200.081085,61.252434 200.017639,60.494007 200.042313,59.363361 
	C200.965378,59.609276 201.800323,60.227406 202.635254,60.845535 
	C202.026413,61.228390 201.417587,61.611252 200.476639,62.002487 
z"/>
<path fill="#F8F4F6" opacity="1.000000" stroke="none" 
	d="
M147.321991,96.949272 
	C147.146774,96.133461 147.297577,95.275192 147.703003,94.207199 
	C147.854431,94.967262 147.751221,95.937035 147.321991,96.949272 
z"/>
<path fill="#F9E6EA" opacity="1.000000" stroke="none" 
	d="
M7.111166,157.167877 
	C8.021551,157.307510 8.952773,157.818176 10.013517,158.630569 
	C9.139359,158.467834 8.135680,158.003357 7.111166,157.167877 
z"/>
<path fill="#F8F4F6" opacity="1.000000" stroke="none" 
	d="
M141.787064,114.085312 
	C142.378494,114.210663 142.905014,114.478455 143.703476,114.857086 
	C143.536163,115.618179 143.096893,116.268433 142.337357,116.967484 
	C142.017090,117.016273 142.003937,117.003838 141.990875,116.589661 
	C141.915527,115.628052 141.853226,115.080627 141.790924,114.533203 
	C141.790909,114.533203 141.722137,114.227760 141.787064,114.085312 
z"/>
<path fill="#F8F4F6" opacity="1.000000" stroke="none" 
	d="
M200.354248,56.960094 
	C199.985031,56.558537 199.910172,56.113251 199.911469,55.334217 
	C200.207947,55.639099 200.428284,56.277733 200.354248,56.960094 
z"/>
<path fill="#FAE6E7" opacity="1.000000" stroke="none" 
	d="
M118.029121,6.595354 
	C117.861992,6.842940 117.681526,6.854339 117.237198,6.803385 
	C117.166840,6.361120 117.360321,5.981208 117.553810,5.601296 
	C117.707794,5.853920 117.861786,6.106543 118.029121,6.595354 
z"/>
<path fill="#F9E6EA" opacity="1.000000" stroke="none" 
	d="
M44.959690,99.439293 
	C45.277740,99.576981 45.617836,100.004768 45.995956,100.721191 
	C45.683228,100.583023 45.332481,100.156204 44.959690,99.439293 
z"/>
<path fill="#F9E6EA" opacity="1.000000" stroke="none" 
	d="
M36.613529,34.219410 
	C36.771935,34.620689 36.696949,35.235210 36.382927,36.062691 
	C36.222641,35.661312 36.301388,35.046986 36.613529,34.219410 
z"/>
<path fill="#F9E6EA" opacity="1.000000" stroke="none" 
	d="
M48.958138,104.513153 
	C49.337437,104.589203 49.758816,104.961327 50.219349,105.621658 
	C49.839073,105.542984 49.419647,105.176109 48.958138,104.513153 
z"/>
<path fill="#FAE6E7" opacity="1.000000" stroke="none" 
	d="
M114.917480,8.139754 
	C114.976570,8.362458 114.763489,8.647029 114.291626,9.012640 
	C114.237007,8.796328 114.441154,8.498975 114.917480,8.139754 
z"/>
<path fill="#F9E6EA" opacity="1.000000" stroke="none" 
	d="
M37.558102,32.131432 
	C37.877563,32.361313 37.787754,32.652054 37.255512,32.981686 
	C37.039024,32.769188 37.150944,32.493092 37.558102,32.131432 
z"/>
<path fill="#F8F4F6" opacity="1.000000" stroke="none" 
	d="
M198.552002,42.466583 
	C198.586456,42.523804 198.517532,42.409359 198.552002,42.466583 
z"/>
<path fill="#F3DEE6" opacity="1.000000" stroke="none" 
	d="
M111.909622,161.753342 
	C111.810547,161.483673 112.027634,161.145782 112.534988,160.703278 
	C112.625435,160.960815 112.425606,161.322968 111.909622,161.753342 
z"/>
<path fill="#F8F4F6" opacity="1.000000" stroke="none" 
	d="
M181.552063,96.465164 
	C181.586945,96.522835 181.517197,96.407494 181.552063,96.465164 
z"/>
<path fill="#FAE6E7" opacity="1.000000" stroke="none" 
	d="
M127.834488,19.011826 
	C127.594536,19.058828 127.315971,18.818340 126.978470,18.302647 
	C127.211662,18.259741 127.503769,18.492039 127.834488,19.011826 
z"/>
<path fill="#F9E6EA" opacity="1.000000" stroke="none" 
	d="
M51.141361,107.076309 
	C51.369553,107.007324 51.667023,107.205833 52.030987,107.676979 
	C51.801868,107.747681 51.506252,107.545746 51.141361,107.076309 
z"/>
<path fill="#F9E6EA" opacity="1.000000" stroke="none" 
	d="
M43.592087,18.160326 
	C43.709236,18.330227 43.619301,18.650045 43.326065,19.122904 
	C43.210175,18.954044 43.297588,18.632143 43.592087,18.160326 
z"/>
<path fill="#72374F" opacity="1.000000" stroke="none" 
	d="
M180.956345,112.683144 
	C177.468536,114.720253 173.770340,116.091980 170.515030,118.160683 
	C167.818848,119.874069 164.808823,121.974068 163.406189,124.667442 
	C160.019791,131.170181 154.015900,134.623535 148.376617,138.998428 
	C145.614334,134.176300 143.008148,140.687485 141.765594,139.612320 
	C141.513748,140.903656 141.749680,143.052185 140.808746,143.910370 
	C137.540436,146.891281 132.920364,148.644882 133.377808,154.406738 
	C133.443832,155.238327 131.442215,156.234039 130.397446,157.153809 
	C129.897018,156.907318 129.396591,156.660812 128.896164,156.414322 
	C130.278732,152.439026 131.452850,148.374771 133.101288,144.512955 
	C134.821182,140.483765 136.998108,136.649643 138.965408,132.349884 
	C140.672699,130.292664 142.368988,128.593582 144.121338,126.954430 
	C144.565994,126.538506 145.587280,126.394592 145.670105,125.988380 
	C146.788712,120.501862 151.937439,119.797050 155.622177,117.275734 
	C159.557907,114.582680 163.129242,111.362541 166.920853,108.452225 
	C173.971298,103.040543 176.649734,103.799965 180.956345,112.683144 
z"/>
<path fill="#EECAD2" opacity="1.000000" stroke="none" 
	d="
M138.501129,128.171371 
	C138.028244,129.218002 137.555359,130.264633 137.038818,131.655472 
	C134.894028,135.269577 132.792908,138.539490 130.280487,141.762787 
	C129.565414,141.469940 129.261627,141.223709 128.957855,140.977493 
	C131.285782,136.764725 133.613724,132.551956 136.708588,128.192932 
	C137.817413,128.088257 138.159271,128.129822 138.501129,128.171371 
z"/>
<path fill="#F7E4E6" opacity="1.000000" stroke="none" 
	d="
M128.830719,141.331100 
	C129.261627,141.223709 129.565414,141.469940 130.012085,141.977997 
	C129.975098,142.565948 129.795227,142.892044 129.340454,143.139221 
	C128.944916,142.601761 128.824249,142.143234 128.830719,141.331100 
z"/>
<path fill="#D85D63" opacity="1.000000" stroke="none" 
	d="
M142.022171,63.968372 
	C142.683502,69.346924 143.344833,74.725479 143.752396,80.724716 
	C143.339691,81.902985 143.180756,82.460564 143.021820,83.018143 
	C143.021820,83.018143 143.005814,83.005524 142.584702,83.007523 
	C134.649826,83.321800 127.118492,84.047035 119.631584,83.728348 
	C116.912964,83.612617 115.414459,84.052406 113.725388,85.800766 
	C110.298813,78.734283 107.149864,71.867142 104.282425,64.791473 
	C105.934418,63.074764 107.251175,60.324604 108.684235,60.262596 
	C117.153236,59.896168 125.691154,59.703854 134.109680,60.487034 
	C136.517349,60.711018 140.651825,61.053844 141.784943,64.922523 
	C141.841553,64.767982 141.911514,64.616753 141.950989,64.457947 
	C141.990555,64.298691 141.999710,64.131874 142.022171,63.968372 
z"/>
<path fill="#D55B61" opacity="1.000000" stroke="none" 
	d="
M132.011337,130.015472 
	C132.011337,130.015472 132.000961,130.507935 131.644501,130.788879 
	C127.837914,134.616592 124.387810,138.163376 120.098083,142.573303 
	C120.634254,134.116638 111.250526,131.388321 111.586533,123.629662 
	C111.607597,123.143204 110.349075,122.685333 109.850189,122.078964 
	C106.103317,117.524872 100.877296,113.826889 101.223480,106.744843 
	C109.118431,106.892700 116.790215,107.296326 124.505363,107.702232 
	C124.315216,105.552261 124.158066,103.775368 124.310371,102.157898 
	C127.077995,106.212967 129.536148,110.108620 131.997437,114.421616 
	C132.337692,117.888542 132.674805,120.938110 132.856079,124.339790 
	C132.470627,126.466423 132.240982,128.240952 132.011337,130.015472 
z"/>
<path fill="#D45862" opacity="1.000000" stroke="none" 
	d="
M142.024017,63.536224 
	C141.999710,64.131874 141.990555,64.298691 141.950989,64.457947 
	C141.911514,64.616753 141.841553,64.767982 141.784943,64.922523 
	C140.651825,61.053844 136.517349,60.711018 134.109680,60.487034 
	C125.691154,59.703854 117.153236,59.896168 108.684235,60.262596 
	C107.251175,60.324604 105.934418,63.074764 104.038498,64.637978 
	C103.010277,64.128365 102.507477,63.563728 102.003784,62.530869 
	C102.003052,56.042583 102.003204,50.022507 102.384628,43.958298 
	C111.354942,40.703659 120.140625,44.033646 128.803558,43.163322 
	C129.213135,43.122169 129.695801,43.559040 130.107712,43.829288 
	C134.248154,46.545746 134.544617,46.374958 135.017227,40.964134 
	C135.851593,40.983833 136.685944,41.003536 137.944366,41.041592 
	C138.368423,41.059944 138.541534,41.414978 138.572525,41.608746 
	C138.389496,43.006313 137.795761,44.288311 138.024887,45.400852 
	C139.244965,51.325317 140.671051,57.207352 142.024017,63.536224 
z"/>
<path fill="#DA6366" opacity="1.000000" stroke="none" 
	d="
M131.994308,114.004272 
	C129.536148,110.108620 127.077995,106.212967 124.309494,101.908646 
	C123.999161,101.499969 123.997368,101.001434 123.964233,100.661057 
	C122.954979,99.545906 121.978867,98.771141 120.997650,97.647278 
	C119.995667,96.198288 118.998779,95.098404 117.965668,93.649506 
	C116.620636,90.867035 115.311821,88.433571 114.003006,86.000107 
	C115.414459,84.052406 116.912964,83.612617 119.631584,83.728348 
	C127.118492,84.047035 134.649826,83.321800 142.595520,83.016968 
	C143.026154,84.729774 143.024857,86.435150 142.848297,88.656357 
	C142.608292,89.280571 142.463943,89.450386 142.492218,89.487030 
	C142.639114,89.677467 142.830048,89.833961 143.005630,90.002274 
	C143.008667,90.169083 143.011688,90.335899 142.688812,90.921143 
	C138.184891,95.518082 141.672287,100.463974 140.996094,104.993057 
	C140.994492,105.160202 140.992874,105.327347 140.568695,105.745972 
	C135.409912,105.490997 132.524109,107.038139 132.892456,112.385048 
	C132.928040,112.901711 132.309296,113.463455 131.994308,114.004272 
z"/>
<path fill="#852842" opacity="1.000000" stroke="none" 
	d="
M116.330215,154.782471 
	C115.842453,155.354599 115.231354,155.509705 114.368935,155.848480 
	C113.339760,156.030350 112.561920,156.028564 111.394470,155.638519 
	C109.348007,152.166016 107.691139,149.081741 105.888069,145.682846 
	C100.482834,140.581619 95.223793,135.795013 90.369362,131.004959 
	C92.809006,131.794510 95.224342,132.134338 96.808922,133.464096 
	C101.891228,137.729095 107.164352,136.871918 110.384338,131.105804 
	C112.515610,137.531204 114.343689,143.786453 116.171776,150.041718 
	C116.183479,151.482971 116.195183,152.924210 116.330215,154.782471 
z"/>
<path fill="#CE5E68" opacity="1.000000" stroke="none" 
	d="
M116.516449,149.983047 
	C114.343689,143.786453 112.515610,137.531204 110.330261,130.769577 
	C109.297424,128.845840 108.621849,127.428467 107.923355,125.660805 
	C104.637405,120.855110 101.374374,116.399712 98.053154,111.591263 
	C96.638771,108.497963 95.282578,105.757713 94.279869,103.042618 
	C96.755676,104.378708 98.877991,105.689659 101.000305,107.000610 
	C100.877296,113.826889 106.103317,117.524872 109.850189,122.078964 
	C110.349075,122.685333 111.607597,123.143204 111.586533,123.629662 
	C111.250526,131.388321 120.634254,134.116638 120.098083,142.573303 
	C124.387810,138.163376 127.837914,134.616592 131.645233,131.035156 
	C126.713417,137.114899 125.474121,146.469559 116.516449,149.983047 
z"/>
<path fill="#D76A6B" opacity="1.000000" stroke="none" 
	d="
M131.997437,114.421616 
	C132.309296,113.463455 132.928040,112.901711 132.892456,112.385048 
	C132.524109,107.038139 135.409912,105.490997 140.563766,105.996643 
	C138.802689,111.807297 136.623947,117.618774 133.981018,123.710144 
	C133.348526,123.989250 133.180222,123.988472 133.011917,123.987686 
	C132.674805,120.938110 132.337692,117.888542 131.997437,114.421616 
z"/>
<path fill="#FAE6E7" opacity="1.000000" stroke="none" 
	d="
M138.710693,127.945602 
	C138.159271,128.129822 137.817413,128.088257 136.961075,127.987686 
	C137.385483,125.417976 138.324371,122.907288 139.514069,120.161728 
	C140.757965,120.496109 141.751038,121.065353 142.916077,121.929398 
	C141.698792,124.056076 140.309525,125.887947 138.710693,127.945602 
z"/>
<path fill="#D76A6B" opacity="1.000000" stroke="none" 
	d="
M141.285751,104.720428 
	C141.672287,100.463974 138.184891,95.518082 142.685822,91.171387 
	C142.530945,95.484741 142.053177,99.966278 141.285751,104.720428 
z"/>
<path fill="#CE5E68" opacity="1.000000" stroke="none" 
	d="
M132.856079,124.339790 
	C133.180222,123.988472 133.348526,123.989250 133.769562,123.989395 
	C133.569839,125.879471 133.117416,127.770180 132.338165,129.838181 
	C132.240982,128.240952 132.470627,126.466423 132.856079,124.339790 
z"/>
<path fill="#DA6366" opacity="1.000000" stroke="none" 
	d="
M143.264679,82.848557 
	C143.180756,82.460564 143.339691,81.902985 143.743591,81.178879 
	C143.828201,81.567886 143.667862,82.123428 143.264679,82.848557 
z"/>
<path fill="#FAE6E7" opacity="1.000000" stroke="none" 
	d="
M144.575104,103.795403 
	C144.715164,104.218498 144.629715,104.895508 144.273071,105.789597 
	C144.117798,105.354218 144.233704,104.701775 144.575104,103.795403 
z"/>
<path fill="#FAE6E7" opacity="1.000000" stroke="none" 
	d="
M141.561859,114.778839 
	C141.853226,115.080627 141.915527,115.628052 141.988007,116.586823 
	C141.813339,116.995499 141.628494,116.992828 141.166718,116.971313 
	C141.037430,116.309792 141.185104,115.667130 141.561859,114.778839 
z"/>
<path fill="#D85D63" opacity="1.000000" stroke="none" 
	d="
M143.009384,89.750290 
	C142.830048,89.833961 142.639114,89.677467 142.492218,89.487030 
	C142.463943,89.450386 142.608292,89.280571 142.842468,89.083237 
	C143.012329,89.162285 143.012726,89.330299 143.009384,89.750290 
z"/>
<path fill="#CF5B62" opacity="1.000000" stroke="none" 
	d="
M69.025864,180.988464 
	C68.431419,181.905487 67.986275,183.457108 67.218582,183.637695 
	C61.770435,184.919373 56.290604,186.156738 50.755867,186.960724 
	C39.880093,188.540543 28.998604,188.459564 18.226351,185.993866 
	C16.132202,185.514542 14.106680,184.735382 11.203789,183.831055 
	C13.323322,181.499252 14.602459,180.092010 16.301535,178.337341 
	C18.475388,175.987930 20.229301,173.985977 21.983219,171.984009 
	C21.983219,171.984009 22.000000,172.000000 22.425747,171.997803 
	C25.373529,172.525589 27.890854,173.079300 30.418482,173.581131 
	C37.675232,175.021851 44.936150,176.441589 52.401993,177.859680 
	C52.608559,177.849762 53.018860,177.901901 53.046486,178.210785 
	C53.472446,178.866531 53.870777,179.213409 54.269112,179.560303 
	C54.514660,179.038635 54.760208,178.516968 55.399876,178.039734 
	C60.204613,179.052261 64.615234,180.020355 69.025864,180.988464 
z"/>
<path fill="#94304E" opacity="1.000000" stroke="none" 
	d="
M23.357601,166.111801 
	C22.914820,164.474945 22.463560,163.059631 22.399490,161.319229 
	C30.525112,162.329834 38.263550,163.665527 45.938972,165.350739 
	C44.332508,166.647095 42.789062,167.593948 40.125305,169.228058 
	C42.798130,170.035797 44.397461,170.519119 45.997330,171.395172 
	C46.001507,172.835205 46.005142,173.882492 45.657768,174.811417 
	C43.008213,173.892822 40.701115,173.116241 38.412876,172.287567 
	C33.378166,170.464340 28.352985,168.614807 23.323921,166.775986 
	C23.323921,166.775986 23.349123,166.333328 23.357601,166.111801 
z"/>
<path fill="#902D49" opacity="1.000000" stroke="none" 
	d="
M46.008781,174.929794 
	C46.005142,173.882492 46.001507,172.835205 46.386841,171.400833 
	C48.188557,171.421951 50.384823,171.401154 50.882591,172.310303 
	C53.460205,177.018204 57.816360,175.439362 61.686096,176.115799 
	C66.537628,176.963852 71.239548,178.667801 76.006042,180.002335 
	C75.997108,180.197815 75.988167,180.393311 75.951126,180.882690 
	C73.911842,181.117157 71.900673,181.057755 69.457680,180.993408 
	C64.615234,180.020355 60.204613,179.052261 55.069389,178.009445 
	C53.902809,177.923782 53.460835,177.912842 53.018860,177.901901 
	C53.018860,177.901901 52.608559,177.849762 52.193684,177.573517 
	C49.855469,176.508102 47.932125,175.718948 46.008781,174.929794 
z"/>
<path fill="#C25565" opacity="1.000000" stroke="none" 
	d="
M45.657768,174.811417 
	C47.932125,175.718948 49.855469,176.508102 51.987122,177.583435 
	C44.936150,176.441589 37.675232,175.021851 30.418482,173.581131 
	C27.890854,173.079300 25.373529,172.525589 22.417561,171.989029 
	C22.354797,170.500443 22.725971,169.018402 23.210533,167.156189 
	C28.352985,168.614807 33.378166,170.464340 38.412876,172.287567 
	C40.701115,173.116241 43.008213,173.892822 45.657768,174.811417 
z"/>
<path fill="#C25565" opacity="1.000000" stroke="none" 
	d="
M21.651073,172.029510 
	C20.229301,173.985977 18.475388,175.987930 16.356087,178.002609 
	C17.766777,176.035217 19.542852,174.055115 21.651073,172.029510 
z"/>
<path fill="#AA4554" opacity="1.000000" stroke="none" 
	d="
M86.952843,43.078083 
	C87.243553,43.544132 87.534264,44.010185 87.742882,44.996086 
	C86.790932,46.681557 85.921074,47.847176 84.605881,49.007576 
	C73.158119,48.667904 62.152740,48.400425 51.156906,47.916180 
	C49.746101,47.854046 48.384918,46.665115 47.040985,45.639641 
	C49.620762,41.612213 53.122494,40.597977 57.417255,41.251476 
	C64.274841,42.294952 69.982674,37.641476 69.009583,31.961636 
	C73.078735,34.524319 77.128334,37.118889 81.228058,39.631691 
	C82.589851,40.466366 84.080368,41.091022 85.879105,41.731667 
	C86.246178,41.651634 86.220055,41.690479 86.207008,41.994781 
	C86.446922,42.558750 86.699883,42.818417 86.952843,43.078083 
z"/>
<path fill="#A94455" opacity="1.000000" stroke="none" 
	d="
M44.975971,91.037209 
	C42.533962,87.796265 40.091953,84.555328 37.345924,81.143295 
	C36.364231,77.249184 35.686554,73.526154 35.368496,69.460754 
	C37.491455,72.677872 39.254795,76.237350 41.336990,80.440475 
	C44.369366,75.845436 47.736954,75.430725 51.614582,79.327431 
	C53.264313,76.956078 54.640736,74.977577 56.300606,73.132828 
	C57.721569,74.179543 58.859085,75.092499 60.139126,76.299423 
	C61.852798,78.398537 63.423946,80.203690 64.993790,82.414276 
	C64.263840,83.884720 63.724106,85.614403 62.769863,85.885597 
	C60.267956,86.596642 57.567509,87.040077 54.978672,86.915421 
	C50.879311,86.718018 47.439816,87.539223 44.975971,91.037209 
z"/>
<path fill="#B24554" opacity="1.000000" stroke="none" 
	d="
M68.803955,31.688026 
	C69.982674,37.641476 64.274841,42.294952 57.417255,41.251476 
	C53.122494,40.597977 49.620762,41.612213 46.710503,45.641731 
	C45.899437,46.007355 45.459095,46.012360 44.991653,45.717445 
	C44.641998,44.944233 44.319443,44.470947 43.996883,43.598854 
	C43.993908,42.136299 43.990929,41.072556 43.973114,39.710228 
	C43.645329,38.938324 43.332382,38.465008 43.016167,37.593773 
	C43.021206,36.135551 43.029518,35.075256 43.385025,33.951729 
	C47.175117,31.454060 50.426132,27.726316 55.170242,30.196348 
	C58.405144,31.880602 61.138565,32.403572 64.044983,29.970585 
	C65.562759,30.451862 67.080544,30.933140 68.803955,31.688026 
z"/>
<path fill="#B24757" opacity="1.000000" stroke="none" 
	d="
M56.017162,72.999077 
	C54.640736,74.977577 53.264313,76.956078 51.614582,79.327431 
	C47.736954,75.430725 44.369366,75.845436 41.336990,80.440475 
	C39.254795,76.237350 37.491455,72.677872 35.379982,69.052994 
	C35.019024,66.941406 35.006207,64.895218 35.405067,62.421227 
	C38.962166,62.861710 42.126072,63.669155 45.247135,64.617599 
	C47.726566,65.371063 49.128902,64.822075 49.347870,62.036667 
	C50.784840,63.394325 51.890884,64.698662 53.137718,66.323608 
	C54.191395,68.762505 55.104279,70.880791 56.017162,72.999077 
z"/>
<path fill="#BC4F5C" opacity="1.000000" stroke="none" 
	d="
M49.016945,61.983345 
	C49.128902,64.822075 47.726566,65.371063 45.247135,64.617599 
	C42.126072,63.669155 38.962166,62.861710 35.416546,61.982323 
	C35.349987,57.268524 35.683628,52.565823 36.368706,47.374992 
	C38.567749,44.468109 40.411140,42.038742 43.996883,43.997662 
	C44.319443,44.470947 44.641998,44.944233 44.991058,46.118385 
	C46.350685,51.873943 47.683815,56.928646 49.016945,61.983345 
z"/>
<path fill="#B74A58" opacity="1.000000" stroke="none" 
	d="
M63.981407,29.630325 
	C61.138565,32.403572 58.405144,31.880602 55.170242,30.196348 
	C50.426132,27.726316 47.175117,31.454060 43.369446,33.606300 
	C42.650703,32.537640 42.294739,31.751186 41.938774,30.964731 
	C42.260399,29.853687 42.610023,28.749872 42.899078,27.630419 
	C44.691540,20.688509 46.774502,19.855320 53.063030,23.386942 
	C55.599155,24.811224 58.280910,25.976185 60.737808,27.728212 
	C60.384502,28.462679 60.189774,28.728092 59.856098,29.049234 
	C59.813622,29.071625 59.910099,29.038286 60.229568,28.891497 
	C60.646271,28.510403 60.839977,28.242758 61.033688,27.975115 
	C61.995068,28.413431 62.956451,28.851748 63.981407,29.630325 
z"/>
<path fill="#BC5862" opacity="1.000000" stroke="none" 
	d="
M41.581856,31.036903 
	C42.294739,31.751186 42.650703,32.537640 43.022247,33.669525 
	C43.029518,35.075256 43.021206,36.135551 42.784340,37.763451 
	C43.033176,38.890308 43.510567,39.449558 43.987953,40.008812 
	C43.990929,41.072556 43.993908,42.136299 43.996883,43.598854 
	C40.411140,42.038742 38.567749,44.468109 36.381226,46.942455 
	C36.773979,44.374336 37.505657,41.750626 38.767128,39.269970 
	C39.705791,39.370987 40.114666,39.328949 40.523537,39.286907 
	C40.010601,38.857304 39.497662,38.427700 38.984726,37.998096 
	C39.731461,35.701756 40.478195,33.405415 41.581856,31.036903 
z"/>
<path fill="#BC4F5C" opacity="1.000000" stroke="none" 
	d="
M38.981133,38.239319 
	C39.497662,38.427700 40.010601,38.857304 40.523537,39.286907 
	C40.114666,39.328949 39.705791,39.370987 39.132576,39.187988 
	C38.968231,38.962948 38.977543,38.480541 38.981133,38.239319 
z"/>
<path fill="#D2535F" opacity="1.000000" stroke="none" 
	d="
M135.015411,40.575226 
	C134.544617,46.374958 134.248154,46.545746 130.107712,43.829288 
	C129.695801,43.559040 129.213135,43.122169 128.803558,43.163322 
	C120.140625,44.033646 111.354942,40.703659 102.383179,43.536125 
	C103.353310,34.701195 104.250511,26.075598 111.648972,19.265705 
	C113.361984,19.265705 115.980797,19.265705 119.090469,19.265705 
	C118.180374,16.977839 117.588593,15.490170 116.998413,14.001249 
	C117.000000,14.000000 117.002426,13.996866 117.300392,13.977249 
	C118.064941,13.636873 118.531517,13.316113 118.998100,12.995354 
	C126.258415,20.927053 131.833282,29.851484 135.015411,40.575226 
z"/>
<path fill="#CA4D5A" opacity="1.000000" stroke="none" 
	d="
M116.996811,14.002501 
	C117.588593,15.490170 118.180374,16.977839 119.090469,19.265705 
	C115.980797,19.265705 113.361984,19.265705 111.648972,19.265705 
	C104.250511,26.075598 103.353310,34.701195 102.001907,43.580261 
	C102.003204,50.022507 102.003052,56.042583 101.678207,62.694305 
	C98.614349,64.176369 95.876846,65.725967 93.135635,65.732559 
	C87.317322,65.746552 84.359283,68.337982 84.486755,74.215385 
	C84.499481,74.802246 83.474060,75.411629 82.659317,75.766388 
	C81.907196,73.028740 81.426216,70.535255 80.966766,67.668488 
	C81.336205,65.858353 81.684097,64.421486 82.044281,62.660950 
	C82.059456,61.905411 82.062332,61.473553 82.290924,60.859211 
	C82.649117,60.125847 82.781586,59.574970 82.979149,58.643181 
	C83.713234,55.179115 84.382225,52.095955 85.051216,49.012794 
	C85.921074,47.847176 86.790932,46.681557 87.848984,45.249580 
	C90.582420,42.171169 93.316849,39.505966 95.635864,36.518326 
	C101.551865,28.896599 107.165886,21.037008 113.217453,13.527844 
	C114.090202,12.444883 116.710587,12.770324 118.760162,12.719679 
	C118.531517,13.316113 118.064941,13.636873 117.245285,13.838966 
	C116.805901,13.671368 116.719582,13.622437 116.633263,13.573503 
	C116.754448,13.716502 116.875626,13.859502 116.996811,14.002501 
z"/>
<path fill="#A66970" opacity="1.000000" stroke="none" 
	d="
M86.967850,42.839996 
	C86.699883,42.818417 86.446922,42.558750 86.211227,42.017120 
	C86.228493,41.735157 86.662552,41.822594 86.824829,41.973701 
	C86.987114,42.124809 86.982849,42.601910 86.967850,42.839996 
z"/>
<path fill="#B23B54" opacity="1.000000" stroke="none" 
	d="
M24.145573,145.487686 
	C24.145569,145.487686 24.246111,145.526840 24.651726,145.684967 
	C29.367050,144.227921 33.676758,142.612747 38.314140,141.141449 
	C41.744713,145.677521 46.063560,146.574951 51.098797,145.844254 
	C54.327198,145.375763 57.617554,144.963577 60.864017,145.061340 
	C69.711731,145.327820 69.707008,145.440109 71.623993,137.319504 
	C71.654266,137.191284 71.865273,137.105728 72.286774,137.285645 
	C72.726654,141.047684 72.871696,144.524307 73.006729,148.371460 
	C71.999100,151.163589 71.001480,153.585190 69.757156,156.170807 
	C69.337090,156.887848 69.163742,157.440872 68.606674,158.039047 
	C62.900620,159.056320 57.574631,160.843643 52.256744,160.819855 
	C43.025219,160.778549 33.784233,159.765823 24.575680,158.868347 
	C19.306316,158.354782 15.320611,154.776489 15.304467,150.888916 
	C16.391527,150.500793 17.187178,150.241745 18.283100,149.968018 
	C19.055021,149.633316 19.526672,149.313309 20.245205,148.985168 
	C20.492086,148.977036 20.986084,148.971008 21.208717,148.872864 
	C21.708836,148.582397 21.899309,148.325516 22.001385,148.002045 
	C22.000000,148.000000 22.004885,148.002548 22.256943,147.798752 
	C22.483667,147.178864 22.458336,146.762756 22.433004,146.346664 
	C22.433004,146.346664 22.721781,146.437592 23.047216,146.534485 
	C23.630293,146.250153 23.887934,145.868927 24.145573,145.487686 
z"/>
<path fill="#9A3F56" opacity="1.000000" stroke="none" 
	d="
M73.016747,148.000946 
	C72.871696,144.524307 72.726654,141.047684 72.287308,136.934784 
	C71.656189,135.199997 71.319366,134.101456 70.881287,132.784195 
	C70.584946,132.292480 70.325584,132.111740 69.634438,131.980011 
	C67.796585,130.886520 66.326233,129.836258 64.855881,128.786011 
	C69.497383,128.742004 74.138893,128.697998 79.269661,128.190109 
	C81.839722,128.151947 83.920509,128.577682 86.293335,129.146393 
	C87.711830,129.862396 88.838287,130.435394 89.964752,131.008408 
	C95.223793,135.795013 100.482834,140.581619 105.525108,145.677856 
	C103.690231,145.551132 101.760201,145.530960 100.514664,144.597473 
	C97.266464,142.163055 94.513550,144.946426 91.673599,145.290787 
	C85.451065,146.045273 78.545815,142.659073 73.016747,148.000946 
z"/>
<path fill="#B94458" opacity="1.000000" stroke="none" 
	d="
M64.445175,128.798859 
	C66.326233,129.836258 67.796585,130.886520 69.741829,132.193512 
	C70.412254,132.717224 70.667526,132.901459 70.982544,133.002914 
	C71.319366,134.101456 71.656189,135.199997 71.992477,136.649399 
	C71.865273,137.105728 71.654266,137.191284 71.623993,137.319504 
	C69.707008,145.440109 69.711731,145.327820 60.864017,145.061340 
	C57.617554,144.963577 54.327198,145.375763 51.098797,145.844254 
	C46.063560,146.574951 41.744713,145.677521 38.368065,140.799026 
	C40.378025,138.351227 42.661732,136.389740 44.945442,134.428253 
	C51.308453,132.556076 57.671467,130.683899 64.445175,128.798859 
z"/>
<path fill="#7E354A" opacity="1.000000" stroke="none" 
	d="
M86.001305,129.003418 
	C83.920509,128.577682 81.839722,128.151947 79.479370,127.847183 
	C76.203407,125.955048 73.207008,123.941940 70.022354,121.642136 
	C69.870926,121.124725 69.907753,120.894028 70.375565,120.323578 
	C73.535301,120.657814 76.264030,121.331779 79.135406,122.294067 
	C80.184753,123.054825 81.091461,123.527260 82.248703,123.999847 
	C82.666260,123.999794 82.833282,123.999596 83.035637,124.341263 
	C84.047752,126.123222 85.024529,127.563324 86.001305,129.003418 
z"/>
<path fill="#A03B55" opacity="1.000000" stroke="none" 
	d="
M44.555077,134.497711 
	C42.661732,136.389740 40.378025,138.351227 38.040394,140.655136 
	C33.676758,142.612747 29.367050,144.227921 24.650188,145.738892 
	C25.217684,144.697784 26.040224,143.462982 27.192766,142.874466 
	C32.801636,140.010483 38.498798,137.319443 44.555077,134.497711 
z"/>
<path fill="#894F5F" opacity="1.000000" stroke="none" 
	d="
M17.982830,149.982697 
	C17.187178,150.241745 16.391527,150.500793 14.936319,150.881210 
	C13.543138,151.028412 12.809513,151.054260 12.075889,151.080093 
	C12.075889,151.080093 11.940424,150.934814 11.872862,150.861832 
	C15.087756,149.183060 18.370213,147.577255 21.871510,146.557556 
	C22.061861,147.429932 22.033373,147.716248 22.004885,148.002548 
	C22.004885,148.002548 22.000000,148.000000 21.780218,148.102448 
	C21.284433,148.396866 21.092983,148.652237 20.986084,148.971008 
	C20.986084,148.971008 20.492086,148.977036 19.946209,149.003387 
	C18.927832,149.347412 18.455332,149.665054 17.982830,149.982697 
z"/>
<path fill="#A03B55" opacity="1.000000" stroke="none" 
	d="
M23.728401,145.444397 
	C23.887934,145.868927 23.630293,146.250153 23.021702,146.683685 
	C22.884245,146.291031 23.097736,145.846069 23.728401,145.444397 
z"/>
<path fill="#A03B55" opacity="1.000000" stroke="none" 
	d="
M22.256943,147.798752 
	C22.033373,147.716248 22.061861,147.429932 22.175224,146.717453 
	C22.260098,146.291275 22.351692,146.332657 22.392349,146.339661 
	C22.458336,146.762756 22.483667,147.178864 22.256943,147.798752 
z"/>
<path fill="#8E3051" opacity="1.000000" stroke="none" 
	d="
M76.323036,179.845703 
	C71.239548,178.667801 66.537628,176.963852 61.686096,176.115799 
	C57.816360,175.439362 53.460205,177.018204 50.882591,172.310303 
	C50.384823,171.401154 48.188557,171.421951 46.386303,171.008102 
	C44.397461,170.519119 42.798130,170.035797 40.125305,169.228058 
	C42.789062,167.593948 44.332508,166.647095 46.401909,165.349762 
	C50.951317,164.999115 54.974773,164.998947 59.252113,165.280319 
	C64.322853,164.985031 69.869057,166.565826 73.466515,161.000412 
	C81.836525,161.007309 89.742241,160.913696 97.640648,161.111557 
	C99.115013,161.148483 100.560089,162.354706 102.018684,163.021317 
	C102.036194,166.544708 101.483887,169.519791 96.762657,168.588806 
	C96.482414,168.533554 95.978668,168.653351 95.864189,168.854233 
	C91.614647,176.310974 82.588821,175.274506 76.323036,179.845703 
z"/>
<path fill="#943652" opacity="1.000000" stroke="none" 
	d="
M102.322968,162.981262 
	C100.560089,162.354706 99.115013,161.148483 97.640648,161.111557 
	C89.742241,160.913696 81.836525,161.007309 73.337555,160.701477 
	C71.829140,158.937408 70.916504,157.472107 70.003868,156.006790 
	C71.001480,153.585190 71.999100,151.163589 73.006729,148.371460 
	C78.545815,142.659073 85.451065,146.045273 91.673599,145.290787 
	C94.513550,144.946426 97.266464,142.163055 100.514664,144.597473 
	C101.760201,145.530960 103.690231,145.551132 105.671310,145.992462 
	C107.691139,149.081741 109.348007,152.166016 111.005615,155.636444 
	C109.064278,159.359375 106.456177,161.889557 102.322968,162.981262 
z"/>
<path fill="#9D384E" opacity="1.000000" stroke="none" 
	d="
M93.926384,103.017471 
	C95.282578,105.757713 96.638771,108.497963 97.702667,111.633591 
	C89.770058,111.686493 82.131111,111.308243 74.488770,111.019638 
	C71.547989,110.908585 68.599510,111.001549 65.452057,111.001549 
	C65.101730,111.719589 64.545799,112.859055 63.989864,113.998512 
	C61.077572,111.014153 59.313465,107.047470 54.550594,105.706322 
	C52.403198,105.101646 51.033146,101.736351 49.190331,99.006790 
	C56.268375,95.975304 63.536766,95.926048 70.942345,97.411636 
	C73.721832,97.969208 76.641235,97.829308 79.989502,98.038116 
	C79.547852,95.811012 79.270699,94.413467 79.337875,93.046074 
	C82.850899,94.741035 86.019608,96.405846 89.345276,98.304947 
	C90.324493,99.047104 91.146751,99.554977 91.995407,100.378494 
	C92.656654,101.468582 93.291519,102.243027 93.926384,103.017471 
z"/>
<path fill="#94324B" opacity="1.000000" stroke="none" 
	d="
M64.198837,114.264481 
	C64.545799,112.859055 65.101730,111.719589 65.452057,111.001549 
	C68.599510,111.001549 71.547989,110.908585 74.488770,111.019638 
	C82.131111,111.308243 89.770058,111.686493 97.760849,111.986641 
	C101.374374,116.399712 104.637405,120.855110 107.581459,125.692307 
	C102.197334,128.558701 102.473122,122.081390 99.409843,122.268997 
	C93.939995,122.845795 88.470154,123.422592 83.000305,123.999390 
	C82.833282,123.999596 82.666260,123.999794 82.196732,123.654877 
	C80.927078,122.875084 79.959923,122.440414 78.992767,122.005745 
	C76.264030,121.331779 73.535301,120.657814 70.412033,119.975052 
	C68.147606,118.154320 66.277710,116.342384 64.198837,114.264481 
z"/>
<path fill="#A33D51" opacity="1.000000" stroke="none" 
	d="
M78.993553,93.015923 
	C79.270699,94.413467 79.547852,95.811012 79.989502,98.038116 
	C76.641235,97.829308 73.721832,97.969208 70.942345,97.411636 
	C63.536766,95.926048 56.268375,95.975304 49.034210,98.696747 
	C47.659439,96.608330 46.320709,94.213165 44.978973,91.427612 
	C47.439816,87.539223 50.879311,86.718018 54.978672,86.915421 
	C57.567509,87.040077 60.267956,86.596642 62.769863,85.885597 
	C63.724106,85.614403 64.263840,83.884720 65.286499,82.549072 
	C67.052956,83.520294 68.525406,84.762177 70.106812,86.222763 
	C70.415306,86.715279 70.677284,86.901062 71.131683,87.279869 
	C72.175789,88.371338 73.089928,89.181755 74.304031,90.139709 
	C76.067184,91.196793 77.530373,92.106361 78.993553,93.015923 
z"/>
<path fill="#A03B55" opacity="1.000000" stroke="none" 
	d="
M58.998230,164.998779 
	C54.974773,164.998947 50.951317,164.999115 46.464920,165.000259 
	C38.263550,163.665527 30.525112,162.329834 22.363983,160.995560 
	C19.504663,160.097900 17.034966,159.278183 14.639793,158.279694 
	C11.661558,157.038147 10.149657,155.068512 12.008317,151.433594 
	C12.809513,151.054260 13.543138,151.028412 14.644911,151.010284 
	C15.320611,154.776489 19.306316,158.354782 24.575680,158.868347 
	C33.784233,159.765823 43.025219,160.778549 52.256744,160.819855 
	C57.574631,160.843643 62.900620,159.056320 68.570221,158.396881 
	C65.611069,160.805954 62.304649,162.902359 58.998230,164.998779 
z"/>
<path fill="#CF525D" opacity="1.000000" stroke="none" 
	d="
M82.930450,76.010559 
	C83.474060,75.411629 84.499481,74.802246 84.486755,74.215385 
	C84.359283,68.337982 87.317322,65.746552 93.135635,65.732559 
	C95.876846,65.725967 98.614349,64.176369 101.679108,63.162521 
	C102.507477,63.563728 103.010277,64.128365 103.757004,64.846504 
	C107.149864,71.867142 110.298813,78.734283 113.725388,85.800766 
	C115.311821,88.433571 116.620636,90.867035 117.741989,93.914047 
	C113.913849,92.524796 107.454254,94.724739 107.574669,88.370613 
	C104.987801,88.218956 102.813591,88.475105 100.886772,87.900978 
	C96.484200,86.589149 92.437019,86.245468 88.866257,89.677139 
	C87.170822,86.907356 85.620102,84.458618 84.027130,81.709167 
	C83.638008,80.951935 83.291145,80.495407 82.956085,79.636101 
	C82.955421,78.159065 82.942932,77.084808 82.930450,76.010559 
M90.483208,84.587967 
	C90.483208,84.587967 90.417465,84.477356 90.483208,84.587967 
z"/>
<path fill="#D25660" opacity="1.000000" stroke="none" 
	d="
M89.010971,89.998169 
	C92.437019,86.245468 96.484200,86.589149 100.886772,87.900978 
	C102.813591,88.475105 104.987801,88.218956 107.574669,88.370613 
	C107.454254,94.724739 113.913849,92.524796 117.778206,94.263054 
	C118.998779,95.098404 119.995667,96.198288 121.030670,97.987900 
	C122.044991,99.452225 123.021179,100.226830 123.997368,101.001434 
	C123.997368,101.001434 123.999161,101.499969 124.000031,101.749222 
	C124.158066,103.775368 124.315216,105.552261 124.505363,107.702232 
	C116.790215,107.296326 109.118431,106.892700 101.223480,106.744843 
	C98.877991,105.689659 96.755676,104.378708 94.279869,103.042618 
	C93.291519,102.243027 92.656654,101.468582 92.006165,99.980232 
	C90.997345,96.176949 90.004158,93.087555 89.010971,89.998169 
z"/>
<path fill="#D55B61" opacity="1.000000" stroke="none" 
	d="
M123.964233,100.661057 
	C123.021179,100.226830 122.044991,99.452225 121.035774,98.336998 
	C121.978867,98.771141 122.954979,99.545906 123.964233,100.661057 
z"/>
<path fill="#8B2D47" opacity="1.000000" stroke="none" 
	d="
M83.035637,124.341263 
	C88.470154,123.422592 93.939995,122.845795 99.409843,122.268997 
	C102.473122,122.081390 102.197334,128.558701 107.604385,126.042603 
	C108.621849,127.428467 109.297424,128.845840 110.027084,130.599442 
	C107.164352,136.871918 101.891228,137.729095 96.808922,133.464096 
	C95.224342,132.134338 92.809006,131.794510 90.369362,131.004959 
	C88.838287,130.435394 87.711830,129.862396 86.293335,129.146393 
	C85.024529,127.563324 84.047752,126.123222 83.035637,124.341263 
z"/>
<path fill="#C25565" opacity="1.000000" stroke="none" 
	d="
M53.046486,178.210785 
	C53.460835,177.912842 53.902809,177.923782 54.675270,177.964996 
	C54.760208,178.516968 54.514660,179.038635 54.269112,179.560303 
	C53.870777,179.213409 53.472446,178.866531 53.046486,178.210785 
z"/>
<path fill="#A23F4E" opacity="1.000000" stroke="none" 
	d="
M84.605881,49.007576 
	C84.382225,52.095955 83.713234,55.179115 82.652908,58.641609 
	C81.656136,59.399391 81.050697,59.777843 80.445251,60.156292 
	C80.985237,60.451427 81.525223,60.746563 82.065208,61.041695 
	C82.062332,61.473553 82.059456,61.905411 81.617645,62.656441 
	C74.290466,62.677383 67.387276,62.003174 60.521717,62.275959 
	C57.968124,62.377419 55.502609,64.695641 52.996925,66.002998 
	C51.890884,64.698662 50.784840,63.394325 49.347870,62.036667 
	C47.683815,56.928646 46.350685,51.873943 45.018158,46.418304 
	C45.459095,46.012360 45.899437,46.007355 46.670265,46.000259 
	C48.384918,46.665115 49.746101,47.854046 51.156906,47.916180 
	C62.152740,48.400425 73.158119,48.667904 84.605881,49.007576 
z"/>
<path fill="#983A4A" opacity="1.000000" stroke="none" 
	d="
M53.137718,66.323608 
	C55.502609,64.695641 57.968124,62.377419 60.521717,62.275959 
	C67.387276,62.003174 74.290466,62.677383 81.605347,62.980118 
	C81.684097,64.421486 81.336205,65.858353 80.696220,67.925842 
	C80.082291,70.243118 79.760452,71.929764 79.448143,73.566422 
	C77.620430,73.348450 76.165321,73.192848 74.715614,72.997208 
	C73.118828,72.781715 71.368256,72.876167 69.961060,72.231918 
	C64.460823,69.713753 62.528923,70.361984 59.996601,76.005463 
	C58.859085,75.092499 57.721569,74.179543 56.300606,73.132828 
	C55.104279,70.880791 54.191395,68.762505 53.137718,66.323608 
z"/>
<path fill="#913746" opacity="1.000000" stroke="none" 
	d="
M60.139126,76.299423 
	C62.528923,70.361984 64.460823,69.713753 69.961060,72.231918 
	C71.368256,72.876167 73.118828,72.781715 74.715614,72.997208 
	C76.165321,73.192848 77.620430,73.348450 79.448143,73.566422 
	C79.760452,71.929764 80.082291,70.243118 80.674683,68.299118 
	C81.426216,70.535255 81.907196,73.028740 82.659317,75.766388 
	C82.942932,77.084808 82.955421,78.159065 82.685684,79.893845 
	C79.676353,88.069870 74.524940,82.278763 70.232292,82.751656 
	C70.156631,83.801346 70.077240,84.902695 69.997856,86.004051 
	C68.525406,84.762177 67.052956,83.520294 65.287796,82.143623 
	C63.423946,80.203690 61.852798,78.398537 60.139126,76.299423 
z"/>
<path fill="#BC4F5C" opacity="1.000000" stroke="none" 
	d="
M43.973114,39.710228 
	C43.510567,39.449558 43.033176,38.890308 42.787613,38.161373 
	C43.332382,38.465008 43.645329,38.938324 43.973114,39.710228 
z"/>
<path fill="#B24554" opacity="1.000000" stroke="none" 
	d="
M60.006577,29.004948 
	C59.910099,29.038286 59.813622,29.071625 59.858574,29.052483 
	C60.000000,29.000000 60.006577,29.004950 60.006577,29.004948 
z"/>
<path fill="#B24554" opacity="1.000000" stroke="none" 
	d="
M59.997524,28.996754 
	C60.189774,28.728092 60.384502,28.462679 60.801987,28.081638 
	C61.024746,27.966015 61.000050,27.999149 61.016869,27.987133 
	C60.839977,28.242758 60.646271,28.510403 60.229568,28.891499 
	C60.006577,29.004950 60.000000,29.000000 59.997524,28.996754 
z"/>
<path fill="#983A4A" opacity="1.000000" stroke="none" 
	d="
M82.290924,60.859211 
	C81.525223,60.746563 80.985237,60.451427 80.445251,60.156292 
	C81.050697,59.777843 81.656136,59.399391 82.587814,59.022514 
	C82.781586,59.574970 82.649117,60.125847 82.290924,60.859211 
z"/>
<path fill="#D2535F" opacity="1.000000" stroke="none" 
	d="
M116.998405,14.001251 
	C116.875626,13.859502 116.754448,13.716502 116.633263,13.573503 
	C116.719582,13.622437 116.805901,13.671368 116.947327,13.858582 
	C117.002426,13.996866 117.000000,14.000000 116.998405,14.001251 
z"/>
<path fill="#94304E" opacity="1.000000" stroke="none" 
	d="
M59.252113,165.280319 
	C62.304649,162.902359 65.611069,160.805954 68.953934,158.351715 
	C69.163742,157.440872 69.337090,156.887848 69.757156,156.170807 
	C70.916504,157.472107 71.829140,158.937408 72.870735,160.701660 
	C69.869057,166.565826 64.322853,164.985031 59.252113,165.280319 
z"/>
<path fill="#A03B55" opacity="1.000000" stroke="none" 
	d="
M18.283102,149.968018 
	C18.455332,149.665054 18.927832,149.347412 19.699326,149.011520 
	C19.526672,149.313309 19.055021,149.633316 18.283102,149.968018 
z"/>
<path fill="#A03B55" opacity="1.000000" stroke="none" 
	d="
M21.208717,148.872864 
	C21.092983,148.652237 21.284433,148.396866 21.781605,148.104492 
	C21.899309,148.325516 21.708836,148.582397 21.208717,148.872864 
z"/>
<path fill="#B23B54" opacity="1.000000" stroke="none" 
	d="
M70.881287,132.784195 
	C70.667526,132.901459 70.412254,132.717224 70.109329,132.236740 
	C70.325584,132.111740 70.584946,132.292480 70.881287,132.784195 
z"/>
<path fill="#8B2D47" opacity="1.000000" stroke="none" 
	d="
M79.135406,122.294067 
	C79.959923,122.440414 80.927078,122.875084 81.946198,123.654724 
	C81.091461,123.527260 80.184753,123.054825 79.135406,122.294067 
z"/>
<path fill="#8B3242" opacity="1.000000" stroke="none" 
	d="
M70.106812,86.222763 
	C70.077240,84.902695 70.156631,83.801346 70.232292,82.751656 
	C74.524940,82.278763 79.676353,88.069870 82.673874,80.296631 
	C83.291145,80.495407 83.638008,80.951935 84.031410,82.090584 
	C85.781403,87.872032 87.484856,92.971344 89.188309,98.070656 
	C86.019608,96.405846 82.850899,94.741035 79.337875,93.046074 
	C77.530373,92.106361 76.067184,91.196793 74.294991,89.769135 
	C72.991226,88.500298 71.996468,87.749557 71.001709,86.998817 
	C70.677284,86.901062 70.415306,86.715279 70.106812,86.222763 
z"/>
<path fill="#C75C69" opacity="1.000000" stroke="none" 
	d="
M89.345268,98.304947 
	C87.484856,92.971344 85.781403,87.872032 84.073662,82.391296 
	C85.620102,84.458618 87.170822,86.907356 88.866257,89.677139 
	C90.004158,93.087555 90.997345,96.176949 91.979774,99.664597 
	C91.146751,99.554977 90.324493,99.047104 89.345268,98.304947 
z"/>
<path fill="#913746" opacity="1.000000" stroke="none" 
	d="
M71.131683,87.279869 
	C71.996468,87.749557 72.991226,88.500298 73.995018,89.621613 
	C73.089928,89.181755 72.175789,88.371338 71.131683,87.279869 
z"/>
<path fill="#D25660" opacity="1.000000" stroke="none" 
	d="
M90.450333,84.532661 
	C90.417465,84.477356 90.483208,84.587967 90.450333,84.532661 
z"/>
</svg>